<svg width="279" height="61" viewBox="0 0 279 61" xmlns="http://www.w3.org/2000/svg" xmlns:xlink="http://www.w3.org/1999/xlink"><title>logo</title><defs><path id="a" d="M0 .807h278.191V61H0V.807z"/><path id="c" d="M0 .807h278.191V61H0"/></defs><g fill="none" fill-rule="evenodd"><mask id="b" fill="#fff"><use xlink:href="#a"/></mask><path d="M39.942 33.86c-2.304 5.081-7.374 8.607-13.262 8.607-8.059 0-14.588-6.592-14.588-14.721 0-8.134 6.53-14.728 14.588-14.728 5.888 0 10.958 3.53 13.262 8.6V4.375A26.377 26.377 0 0 0 26.68.807C11.947.807 0 12.867 0 27.746c0 14.871 11.947 26.933 26.68 26.933 4.832 0 9.355-1.3 13.262-3.568V33.86z" fill="#3CB3E7" mask="url(#b)"/><path d="M212.856 46.57c0 3.45 2.364 5.583 5.251 5.583 2.673 0 4.662-1.756 5.499-3.7v-3.765c-.837-1.947-2.826-3.701-5.499-3.701-2.887 0-5.25 2.131-5.25 5.583m10.997-5.02v-2.51h2.236v15.058h-2.484v-2.26c-1.088 1.288-2.92 2.635-5.78 2.635-4.259 0-7.454-3.386-7.454-7.903 0-4.518 3.195-7.905 7.455-7.905 2.859 0 4.691 1.35 6.027 2.885m-47.643-2.51l-5.47 7.31 5.78 7.748h-2.858l-4.352-5.96-4.38 5.96h-2.86l5.81-7.747-5.497-7.311h2.855l4.072 5.554 4.044-5.554h2.856zm8.334 2.01c-3.044 0-5.467 2.037-5.467 5.52 0 3.482 2.423 5.52 5.467 5.52 3.044 0 5.47-2.038 5.47-5.52 0-3.483-2.426-5.52-5.47-5.52m0-2.385c4.07 0 7.956 2.761 7.956 7.905 0 5.145-3.885 7.903-7.956 7.903-4.036 0-7.953-2.758-7.953-7.903 0-5.144 3.917-7.905 7.953-7.905m13.234 13.238h5.596c1.551 0 2.67-.47 2.67-2.133 0-1.792-1.337-2.194-2.581-2.194h-5.685v4.327zm0-6.493h5.436c1.304 0 2.331-.502 2.331-2.04 0-1.695-1.277-2.136-2.331-2.136h-5.436v4.176zm-2.485 8.69V39.04h8.17c2.61 0 4.599 1.411 4.599 4.08 0 1.57-.867 2.823-1.989 3.322a3.616 3.616 0 0 1 2.454 3.484c0 2.476-1.583 4.173-4.814 4.173h-8.42zm34.556-.001V39.04h2.484v6.369h8.636v-6.37h2.485V54.1h-2.485v-6.37h-8.636v6.37h-2.485zm17.104 0V39.04h2.48v11.01l9.136-11.01h2.112v15.058h-2.483V43.086L249.067 54.1h-2.113z" fill="#3CB3E7"/><mask id="d" fill="#fff"><use xlink:href="#c"/></mask><path d="M271.208 40.986c-2.548 0-4.908 1.538-5.095 4.484h9.662c.219-1.599-.777-4.484-4.567-4.484m-.156-2.322c5.748 0 7.861 4.737 6.928 9.007h-11.867c.31 3.167 3.138 4.483 6.15 4.483 1.836 0 3.635-.504 4.912-1.225v2.447c-1.368.723-3.323 1.098-5.283 1.098-4.412 0-8.265-2.54-8.265-7.905 0-5.269 3.885-7.905 7.425-7.905" fill="#3CB3E7" mask="url(#d)"/><path d="M218.743 24.012V12.18h-4.939V8.367h14.33v3.813h-4.938v11.832h-4.453zm-14.279-3.12c-2.552 0-3.974-2.291-3.974-4.703 0-2.411 1.422-4.702 3.974-4.702 2.582 0 3.998 2.29 3.998 4.702s-1.416 4.703-3.998 4.703m0-12.979c-3.933 0-7.542 2.151-8.376 6.37h-2.447V8.37h-4.487v15.643h4.487v-5.917h2.447c.834 4.22 4.443 6.376 8.376 6.376 4.519 0 8.554-2.806 8.554-8.282 0-5.477-4.035-8.276-8.554-8.276m-23.435.454h-7.724l-1.723 9.887c-.237 1.351-1.187 2.144-2.458 1.918v3.885c.076.017.153.035.233.048 3.602.644 5.987-1.32 6.632-5.029l1.205-6.897h3.835v11.833h4.49V8.368h-4.49zM40 53.872h13.419V0H40v53.872zm36.445-7.073c0 4.308-3.46 7.797-7.72 7.797-4.269 0-7.725-3.49-7.725-7.797C61 42.493 64.456 39 68.725 39c4.26 0 7.72 3.493 7.72 7.799m83.11-35.225c-2.549 0-3.97 2.291-3.97 4.702 0 2.412 1.421 4.703 3.97 4.703 2.582 0 4.002-2.291 4.002-4.703 0-2.411-1.42-4.702-4.002-4.702m0-3.574c4.522 0 8.556 2.799 8.556 8.276 0 5.476-4.034 8.282-8.556 8.282-4.487 0-8.555-2.806-8.555-8.282S155.068 8 159.555 8" fill="#1D4382"/><path d="M103.434 31c2.177 0 4.29.502 6.125 1.473v2.636c-1.585-1.066-3.64-1.6-5.688-1.6-4.508 0-9.198 2.728-9.228 9.004-.032 5.865 4.814 8.69 9.322 8.69 2.236 0 4.25-.532 5.747-1.602v2.634c-1.804.942-3.977 1.475-6.31 1.475-5.466 0-11.432-3.888-11.402-11.197C92.032 34.89 97.78 31 103.434 31" fill="#3CB3E7"/><path d="M114.498 54.058V41.32H109V39h13.458v2.32h-5.472v12.738h-2.488zm19.485-13.736c-2.673 0-4.658 1.756-5.499 3.703v3.764c.84 1.943 2.826 3.701 5.499 3.701 2.89 0 5.25-2.135 5.25-5.585s-2.36-5.583-5.25-5.583m.28-2.322c4.256 0 7.459 3.39 7.459 7.905 0 4.517-3.203 7.905-7.459 7.905-2.855 0-4.688-1.348-5.779-2.636v9.161H126v-21.96h2.24v2.51c1.335-1.536 3.168-2.885 6.023-2.885m11.221 7.905c0 3.45 2.364 5.583 5.255 5.583 2.67 0 4.658-1.756 5.498-3.7v-3.765c-.84-1.947-2.829-3.701-5.498-3.701-2.891 0-5.255 2.131-5.255 5.583m11.002-5.02v-2.51h2.236v15.058h-2.485v-2.26c-1.087 1.288-2.923 2.635-5.779 2.635-4.26 0-7.458-3.386-7.458-7.903 0-4.518 3.199-7.905 7.458-7.905 2.856 0 4.692 1.35 6.028 2.885" fill="#3CB3E7"/><path d="M125.267 20.764c-2.582 0-4.016-1.868-4.016-4.087 0-2.221 1.434-4.283 4.016-4.283 2.614 0 4.05 2.062 4.05 4.283 0 2.22-1.436 4.087-4.05 4.087m.16-11.705c-1.496 0-2.953.44-4.224 1.143.44-1.197 1.37-2.361 3.18-3.018 2.807-1.015 7.367-1.202 8.037-2.332V1c-1.523 1.493-7.33 1.134-10.998 3.508-2.666 1.727-4.662 5.759-4.399 11.575 0 5.329 3.833 8.215 8.404 8.215 4.391 0 8.31-2.581 8.31-7.621 0-5.041-3.919-7.618-8.31-7.618m-23.968 5.705c1.663-4.383 3.31-8.801 3.39-9.232.08.43 1.722 4.85 3.375 9.232h-6.765zm10.2 9.054h5.006L107.467 1h-5.232L93 23.818h5.006s.878-2.288 2.003-5.237h9.662c1.114 2.95 1.988 5.237 1.988 5.237zM144.75 8c1.708 0 3.231.393 4.62 1.143v3.685c-1.101-.784-2.489-1.218-3.978-1.218-2.45 0-4.81 1.54-4.81 4.702 0 3 2.329 4.703 4.744 4.703 1.65 0 3.076-.436 4.203-1.183v3.718a12.382 12.382 0 0 1-5.07 1.044c-4.231 0-8.459-2.48-8.459-8.052C136 10.544 140.45 8 144.75 8" fill="#1D4382"/></g></svg>