<svg xmlns="http://www.w3.org/2000/svg" viewBox="0 0 97 21"><g fill="#cf0a2c"><path d="M9 5.79a2.18 2.18 0 0 0-2 1.15 6.52 6.52 0 0 0-.8 3.48 7.18 7.18 0 0 0 .8 3.66 2.19 2.19 0 0 0 2 1.16 2.28 2.28 0 0 0 1.89-1.11 11.51 11.51 0 0 0 1.31-4 9 9 0 0 0-1.33-3.39A2.19 2.19 0 0 0 9 5.79"/><path d="M17.78 13.56a4.24 4.24 0 0 1-.41 2.18 1.92 1.92 0 0 1-1.68.93 2.14 2.14 0 0 1-1.73-.9 5.08 5.08 0 0 1-.69-1.52 6.46 6.46 0 0 1-1.65 1.63 5.33 5.33 0 0 1-3 .91A5.49 5.49 0 0 1 4.36 15a6.55 6.55 0 0 1-1.65-4.63A6.39 6.39 0 0 1 4.4 5.94a5.48 5.48 0 0 1 4.19-1.81 4.28 4.28 0 0 1 3.05 1.17 5.8 5.8 0 0 1 1.2 1.7v.09l.58-2.71h3.29s-1.74 6.06-2.3 7.95a3.2 3.2 0 0 0 .61 1.09.86.86 0 0 0 .68.31.68.68 0 0 0 .61-.69v-.09h1.42zM14.09.55H6a6 6 0 0 0-6 5.91v8a6 6 0 0 0 6 5.91h8.12a6 6 0 0 0 6-5.91v-8a6 6 0 0 0-6-5.91zm12.55 6.02L27 4.95a.82.82 0 0 1 1.62 0L29 6.57zm3.46-1.92a2.07 2.07 0 0 0-2.29-1.72 2.13 2.13 0 0 0-2.29 1.72l-1 4.6h1.1a.59.59 0 0 0 .55-.44l.21-.93h2.92l.21.93a.59.59 0 0 0 .55.44h1.1l-1-4.6zm3.75-.19h2.45v4.78h1.52V3.07h-4.58a.91.91 0 0 0-.91.9V7.1a.68.68 0 0 1-.53.75l-.31.07.28 1.33h.29a1.83 1.83 0 0 0 1.79-2.07V4.46M51 7.88h-.55V4.44H51c1 0 1.53.65 1.53 1.72S52.08 7.88 51 7.88zm-2.63 0c-1 0-1.53-.65-1.53-1.72s.49-1.72 1.53-1.72H49v3.44zM51 3.07h-.55v-.71h-1.03a.45.45 0 0 0-.46.45v.27h-.55a2.89 2.89 0 0 0-3.05 3.08 2.89 2.89 0 0 0 3.05 3.09H49V10h1a.46.46 0 0 0 .46-.45v-.3H51a2.89 2.89 0 0 0 3.1-3.09A2.89 2.89 0 0 0 51 3.07zm-8.46 4.79h-2.18V6h2.18a.86.86 0 0 1 .8.92.86.86 0 0 1-.8.92m0-3.22h-2.18V3.08h-1.52v5.71a.46.46 0 0 0 .46.45h3.25a2.26 2.26 0 0 0 2.32-2.3 2.17 2.17 0 0 0-2.32-2.3M56.3 6.57l.36-1.63a.82.82 0 0 1 1.62 0l.36 1.63zm3.46-1.92a2.07 2.07 0 0 0-2.29-1.72 2.13 2.13 0 0 0-2.29 1.72l-1 4.6h1.1a.59.59 0 0 0 .55-.44l.17-.94h2.92l.21.93a.6.6 0 0 0 .55.44h1.1l-1-4.6zm7.42 11.97h-2.8v-1.21h2.8a.58.58 0 0 1 .48.61.57.57 0 0 1-.48.61zM67.06 13a.57.57 0 0 1 .48.61.58.58 0 0 1-.48.61h-2.68V13zm1.52 1.69a1.48 1.48 0 0 0 .42-1.1 1.86 1.86 0 0 0-2-1.86h-3.65a.46.46 0 0 0-.46.45v5.27a.46.46 0 0 0 .46.45h4a1.85 1.85 0 0 0 1.89-1.9 1.58 1.58 0 0 0-.65-1.28zM57 14.82c0-1.11.6-2 1.64-2H59c1 0 1.64.85 1.64 2s-.59 2-1.64 2h-.34c-1 0-1.64-.85-1.64-2m1.55-3.23a3.07 3.07 0 0 0-3.19 3.23A3.07 3.07 0 0 0 58.54 18h.52a3.07 3.07 0 0 0 3.19-3.23 3.07 3.07 0 0 0-3.19-3.23h-.52m-28.39.19l.2.93a.59.59 0 0 0 .55.45h1.42v4.79h1.52v-4.78h1.37a.59.59 0 0 0 .55-.45l.2-.93h-5.81m51.24-.01v2.45h-2.96v-2.45h-1.52v6.17h1.52v-2.39h2.96v2.39h1.52v-6.17h-1.52zm-37 3.5l.36-1.63a.82.82 0 0 1 1.62 0l.36 1.63zm3.46-1.92a2.07 2.07 0 0 0-2.29-1.72 2.13 2.13 0 0 0-2.29 1.72l-1 4.59h1.1a.59.59 0 0 0 .55-.44l.21-.94H47l.21.94a.59.59 0 0 0 .56.44h1.1l-1-4.59zm23.89 1.92l.36-1.63a.82.82 0 0 1 1.62 0l.36 1.63zm3.46-1.92a2.07 2.07 0 0 0-2.29-1.72 2.13 2.13 0 0 0-2.29 1.72l-1 4.59h1.1a.59.59 0 0 0 .55-.44l.21-.94h2.92l.21.94a.59.59 0 0 0 .55.44h1.1l-1-4.59zm-44.57 4.58h-3a2.94 2.94 0 0 1-3.06-3.09 2.94 2.94 0 0 1 3.06-3.08h2.25l-.22.95a.6.6 0 0 1-.56.44h-1.44a1.53 1.53 0 0 0-1.53 1.7 1.53 1.53 0 0 0 1.53 1.7h2.2a.6.6 0 0 1 .56.44l.22.93M40 15h-2.13v-1.88H40A.92.92 0 0 1 40 15m0-3.22h-3.2a.46.46 0 0 0-.46.45v5.67h1.52v-1.56H40A2.17 2.17 0 0 0 42.37 14 2.26 2.26 0 0 0 40 11.73m55.8 4.87h-3.27v-1.18h3.56v-1.19h-3.56V13h3.27a.52.52 0 0 0 .56-.44l.2-.86h-5.1a.46.46 0 0 0-.46.45v5.27a.46.46 0 0 0 .46.45h5.1l-.2-.86a.52.52 0 0 0-.56-.44M84 17.9v-6.17h1.52v4.07l2.64-3.71a1 1 0 0 1 .73-.36H90v6.17h-1.56v-4.07l-2.64 3.71a1 1 0 0 1-.73.36H84"/><path d="M53.47 14.78l2.12-3.05H54.2a.74.74 0 0 0-.7.38l-1.13 1.76h-.2L51 12.11a.74.74 0 0 0-.7-.38h-1.41l2.17 3.12-2.12 3.05h1.4a.74.74 0 0 0 .7-.38l1.13-1.76h.2l1.13 1.76a.74.74 0 0 0 .7.38h1.44l-2.17-3.12"/></g></svg>