<svg viewBox="0 0 80 29" xmlns="http://www.w3.org/2000/svg" width="90"><path d="M13.382 21.01L16.86 8.054h-1.194l1.347-4.446h6.152l4.633 17.383-4.693-.005-.389-1.48h-4.419l-.363 1.525-4.55.004v-.025zm8.48-4.475l-1.506-6.038-1.305 6.042 2.81-.004zm8.637-8.481l-.01 12.952 4.548.004 5.108-9.686-.015 9.667h4.607c.025.025 1.108-4.017 1.242-4.518l-1.276-.006.003-12.914-4.643-.004-4.905 9.208.022-9.213-4.644-.004-1.235 4.513c.156.014 1.032.001 1.198.001m3.822-5.634l.91-2.22c2.006.702 3.867.72 5.571-.023-.121 1.761-2.209 2.587-6.482 2.244l.001-.001M53.51 22.102l-4.249.005.028-5.61h1.264l2.335-8.443h-1.134l1.412-4.492h5.68L62.64 16.52h1.295l-1.107 5.556h-3.995l.24-1.097h-5.565l.002 1.123zm4.696-5.62l-1.768-5.978-1.416 5.98 3.184-.002zm9.124 4.531l11.26-.017.967-4.445-7.712-.016v-2.349h6.578l.798-3.535h-7.363V8.096c0-.01.012-.004.014.003l6.684-.015 1.407-5.308-2.65.004-.267.822H67.32l-1.189 4.49 1.206-.007-.006 12.928m-66.309.003L1.017 8.103H.01L1.421 3.59h9.315l.337-.843h2.657l-1.644 5.335L5.55 8.1l-.004 12.932-4.524-.015zm2.238 5.762l.9.232c-.138.407-.368.71-.689.908-.32.197-.728.296-1.222.296-.61 0-1.113-.17-1.506-.507-.393-.34-.59-.803-.59-1.39 0-.62.198-1.103.593-1.447.396-.343.915-.516 1.56-.516.562 0 1.02.135 1.37.405.21.16.367.389.472.688l-.92.178a.778.778 0 0 0-.34-.459 1.13 1.13 0 0 0-.63-.168c-.34 0-.617.1-.83.299-.212.198-.317.52-.317.964 0 .472.103.809.313 1.008.21.201.481.301.815.301.248 0 .46-.063.638-.191.177-.127.305-.328.383-.6zm2.573 1.373V25.05H4.468v-.632h3.656v.632H6.762v3.1h-.93zm2.89 0v-3.733h1.49c.565 0 .933.019 1.104.056.264.056.486.178.663.365.178.188.267.43.267.727 0 .23-.051.422-.154.578a1.124 1.124 0 0 1-.391.369 1.519 1.519 0 0 1-.481.176 6.508 6.508 0 0 1-.964.054h-.605v1.408h-.929zm.93-3.101v1.058h.506c.367 0 .612-.019.735-.058a.61.61 0 0 0 .29-.183.44.44 0 0 0 .105-.29.433.433 0 0 0-.147-.337.694.694 0 0 0-.373-.165 5.48 5.48 0 0 0-.668-.025h-.449zm6.94 3.1h-1.01l-.402-.847h-1.84l-.378.848h-.986l1.792-3.733h.982l1.842 3.733zm-1.71-1.476l-.634-1.385-.621 1.385h1.255zm1.735 1.477l1.572-1.948-1.424-1.785h1.085l.923 1.2.903-1.2h1.076l-1.43 1.813 1.572 1.92h-1.12l-1.02-1.291-1.023 1.29h-1.114zm4.4-1.844c0-.38.07-.7.21-.957.105-.19.247-.361.428-.512.18-.15.38-.263.595-.336.286-.099.616-.148.991-.148.678 0 1.22.17 1.627.512.407.341.61.816.61 1.423 0 .603-.202 1.074-.606 1.415-.404.34-.943.51-1.618.51-.684 0-1.228-.17-1.632-.507-.404-.34-.605-.806-.605-1.4zm.956-.025c0 .423.121.743.361.961.24.219.546.327.917.327.37 0 .673-.107.911-.325.237-.216.356-.54.356-.973 0-.428-.116-.747-.346-.958-.231-.21-.539-.316-.921-.316-.384 0-.692.107-.927.32-.233.213-.35.534-.35.964zm4.233-1.864h1.839c.364 0 .636.012.815.037.179.024.338.076.48.154.141.078.258.182.352.312.094.13.141.276.141.436a.76.76 0 0 1-.173.482 1.056 1.056 0 0 1-.473.328c.28.067.496.18.646.339.151.16.226.347.226.563 0 .17-.048.334-.145.495a1.09 1.09 0 0 1-.399.384 1.536 1.536 0 0 1-.623.178c-.154.013-.528.021-1.12.025h-1.566v-3.733zm.93.621v.863h.608c.362 0 .587-.004.674-.013a.685.685 0 0 0 .375-.133.357.357 0 0 0 .136-.292.365.365 0 0 0-.116-.281.591.591 0 0 0-.35-.13 13.05 13.05 0 0 0-.794-.014h-.534zm0 1.485v.998h.858c.336 0 .548-.007.638-.023a.62.62 0 0 0 .337-.149.41.41 0 0 0 .13-.317.426.426 0 0 0-.1-.285.576.576 0 0 0-.29-.171c-.127-.036-.402-.053-.824-.053h-.75zm7.536 1.627h-1.01l-.402-.848h-1.84l-.378.848h-.986l1.792-3.733h.982l1.842 3.733zm-1.71-1.477l-.634-1.385-.621 1.385h1.255zm4.954 1.477v-1.558h-.188c-.292 0-.5.035-.62.106-.12.072-.326.285-.616.64l-.672.812h-1.11l.561-.728c.222-.289.399-.491.53-.608.132-.116.298-.22.496-.312-.429-.054-.738-.175-.929-.362a.911.911 0 0 1-.286-.674c0-.228.071-.43.213-.605.14-.176.327-.294.559-.354.23-.06.576-.09 1.036-.09h1.955v3.733h-.929zm0-3.101h-.725c-.368 0-.61.006-.726.02a.514.514 0 0 0-.3.137.399.399 0 0 0-.125.306c0 .13.04.235.121.312.08.077.183.125.307.143.125.02.378.028.76.028h.688v-.946zm5.454-.632h.929v1.589c.207-.017.348-.06.42-.13.073-.07.187-.263.339-.58.193-.404.387-.656.58-.754.193-.099.504-.148.932-.148l.135-.002v.557l-.131-.003c-.19 0-.33.02-.417.058a.49.49 0 0 0-.213.174 3.356 3.356 0 0 0-.242.482 1.632 1.632 0 0 1-.184.323c-.066.086-.183.168-.35.244a.99.99 0 0 1 .513.288c.135.144.283.348.444.61l.627 1.025h-1.09l-.55-.965a7.255 7.255 0 0 1-.17-.255c-.119-.183-.217-.298-.293-.344-.076-.046-.193-.07-.35-.071v1.635h-.929v-3.733zm3.719 1.89c0-.381.07-.7.21-.958a1.874 1.874 0 0 1 1.023-.848c.286-.099.616-.148.991-.148.678 0 1.22.17 1.627.512.407.341.61.816.61 1.423 0 .603-.202 1.074-.606 1.415-.403.34-.943.51-1.618.51-.684 0-1.228-.17-1.632-.507-.404-.34-.605-.806-.605-1.4zm.956-.026c0 .423.121.743.361.961.24.219.546.327.917.327.37 0 .673-.107.911-.325.237-.216.356-.54.356-.973 0-.428-.116-.747-.346-.958-.231-.21-.539-.316-.921-.316-.383 0-.692.107-.927.32-.233.213-.35.534-.35.964zm4.218 1.869v-3.733h1.39l.834 2.547.825-2.547h1.393v3.733h-.862v-2.939l-.913 2.939h-.895l-.91-2.939v2.939h-.862zm5.378-3.733H61.3v3.733h-.928v-3.106H58.57v3.106h-.928v-3.733zm8.755 3.733h-1.01l-.403-.848h-1.839l-.379.848h-.985l1.792-3.733h.982l1.842 3.733zm-1.71-1.477l-.634-1.385-.621 1.385h1.255zm2.205 1.477v-3.733h.93v1.469h1.82v-1.47h.928v3.734h-.929v-1.633h-1.82v1.633h-.929zm4.65-3.733h.87v2.485l1.864-2.485h.925v3.733h-.869v-2.437l-1.861 2.437h-.929v-3.733zm7.36 3.733v-1.558h-.19c-.291 0-.498.035-.62.106-.12.072-.325.285-.615.64l-.672.812h-1.11l.56-.728c.223-.289.4-.491.531-.608a2.08 2.08 0 0 1 .496-.312c-.428-.054-.738-.175-.929-.362a.912.912 0 0 1-.286-.674c0-.228.071-.43.212-.605.142-.176.328-.294.56-.354.23-.06.576-.09 1.036-.09h1.955v3.733h-.929zm0-3.101h-.726c-.368 0-.61.006-.726.02a.515.515 0 0 0-.3.137.399.399 0 0 0-.125.306c0 .13.04.235.12.312a.55.55 0 0 0 .308.143c.125.02.379.028.76.028h.688v-.946z" fill="#163D72" fill-rule="evenodd"/></svg>