<svg id="Layer_1" xmlns="http://www.w3.org/2000/svg" viewBox="0 0 1057 226"><style>.st0{fill-rule:evenodd;clip-rule:evenodd;fill:#164193}.st1{fill:#006384}.st2{fill:#006b8f}.st3{fill:#007299}.st4{fill:#0079a2}.st5{fill:#007ea9}.st6{fill:#0087b7}.st7{fill:#008dc0}.st8{fill:#0094c8}.st9{fill:#009ad1}.st10{fill:#00a0da}.st11{fill:#00a5e1}</style><path id="XMLID_145_" class="st0" d="M387.4 43.9v58.6h-4.9v8.4h26.1v-8.4h-4.9V43.7c6.2 0 10.9 4.1 12.2 13h6.4V35.9h-52.7v20.8h6.4c1.1-8.3 5.3-12.8 11.4-12.8m172.4 31.7l-14.5 26.9h-4.8v8.4h16.9v-8.4h-2.6l9.6-17.8 9 17.8h-2.9v8.4h23v-8.4h-3.2l-17.2-34 13-24.2h4.9v-8.5h-17.4v8.5h3l-8.1 15.1-7.7-15.1h3.5v-8.5h-24.6l-.1 8.5h4.4l15.8 31.3zm-218.9 37.7c9.7 0 17.7-3.1 22.8-8.5V87h-5.3c-2.2 10.9-6.4 17.6-15 17.6-9.7 0-16.7-14.7-16.7-31.1 0-16.5 5.8-31.3 16-31.3 9.6 0 12.7 6.9 15 14.5h5.9V42.1c-6.1-4.7-11.3-8.5-21.6-8.5-16.9 0-32.2 17.8-32.2 39.9s13 39.8 31.1 39.8zm114.5-10.8h-4.9V83.3h5.6c18.6 0 26.3-11.8 26.3-23.9-.1-12-6.8-23.5-24.7-23.5h-28.6v8.4h4.9v58.2h-4.9v8.4h26.2v-8.4zm-4.9-58.1h2.7c8.1 0 13.3 7.3 13.3 15.9s-5.2 14.6-12.9 14.6h-3.1V44.4zm31.7 58.1h-3.5v8.4H494v-8.4h-2.9l4-14.5h17.4l4.1 14.5H513v8.4h23.9v-8.4h-3.4L515 36h-20.2v8.5h3.6l-16.2 58zm28-22.6h-13l6.5-23.5 6.5 23.5zm-227 33.4c9.7 0 17.7-3.1 22.9-8.5V87h-5.3c-2.3 10.9-6.5 17.6-14.9 17.6-9.8 0-16.8-14.7-16.8-31.1 0-16.5 5.8-31.3 16-31.3 9.7 0 12.9 6.9 15.1 14.5h6V42.1c-6.1-4.7-11.2-8.5-21.6-8.5-17 0-32.4 17.8-32.4 39.9s12.9 39.8 31 39.8zm-192.9-37h18.5v26.2h-5v8.4H130v-8.4h-4.9V44.4h4.9v-8.5h-26.1v8.5h5v23.8H90.3V44.4h5v-8.5H68.9v8.5H74v58.1h-5.1v8.4h26.4v-8.4h-5V76.3zm76.1 26.3h-7.1V44.4h7.1c5.9 0 10.7 4.2 10.7 12.5h5.9v-21h-45v8.5h5.1v58.2H138v8.3h28.4v-8.3zM21 88.1V44.4h5v-8.5H-.4v8.5h5.1v58.1H-.4v8.4h22l18.1-51.7v43.4h-5.1v8.4H61v-8.4h-5V44.4h5.1v-8.5H39.2L21 88.1zm195.3-54.5c-19.1 0-31 17.8-31 39.9s12.5 39.9 31 39.9c19.3 0 31-17.8 31-39.9s-12.1-39.9-31-39.9zm0 71c-9.3 0-14.1-14.7-14.1-31.2s5.1-31.2 14.1-31.2c8.9 0 14.2 14.7 14.2 31.2s-4.7 31.2-14.2 31.2zm457.8 14.5c-6.1-5.7-19.6 3-28.8 12.8-6.8 7.3-15.3 19.9-22.3 30.9-9.5 7.2-22.2 16.7-26.2 19.5-5.1 3.5-8.6 5.3-10.6 4.4-2.4-1.2-3.3-6.3-3.6-10.4 3.1-.4 5.8-.8 9.6-2.8 5.6-2.9 8.5-8.5 5.1-12.6-2.9-3.4-8.5-2.2-13.7 1.5l3.1-4.8s1-.8 1.3-.9c10.6-7.1 20.2-13.6 25.8-18.5 7.2-6.2 15.3-14.5 10.8-19.1-5.7-6.1-20 3-29.2 12.9-6.7 7.1-14.7 19.4-21.6 30.2-10.7 7.3-31 21.2-33.8 23.3-2.8 2-4.2.3-2.2-2.8 1-1.6 2.3-3.8 3.6-6 0 0 10-15.6 10.3-16.2.3-.6.2-1.4-.7-1.4h-7c-1 0-1.7.5-2.1 1.1-.3.7-2 3.2-2 3.2-.7-1.4-1.6-2.6-2.8-3.5-4.2-3.1-13.6-1.8-20.8 4.5-7.4 5.5-26.1 19.1-29.2 21.4-3.7 2.7-5 .7-2.6-3 1-1.5 8.4-13.6 11-17.9.6-1-.3-1.9-1.4-1.3-5.8 1.9-10.6 1-12.6-2.8 1.6-1.5 1.4-2.3.8-4.3-.4-1.4-1.6-2.9-3-1.7l-.1.1c-1 .9-3 2.8-3.8 3.6-.7.6-.8 1.4-.8 1.7v.2c-9.6 6-35.2 22.3-38.4 24.6-2.3 1.6-3.8.3-2.1-2.2.4-.7 8-12.6 16.3-25.9l36.3-17.1h-.2c.4-.1.6-.2.6-.2.7-.4.6-1.8-.9-1.8h-23.7c6.1-9.7 10.8-17.2 11-17.6.6-1.1.2-1.7-.5-1.7h-6.9c-.8 0-1.7.5-2.4 1.7-.3.4-5.1 8.1-11.1 17.6h-94.2c-1.7 0-2.5.6-3.1 1.6-.7.9-2 3-2.3 3.8-.5.7-.1 1.6 1.1 1.6h94.2c-2.8 4.5-5.7 9.1-8.4 13.3l-29.3 13.8c0-2.6.1-4.6 1-6.9.7-1.9 1.9-3 3.1-4.1.7-.7.7-1.5.1-1.9-.6-.5-4.1-3.2-4.7-3.6-.5-.3-1-.5-2 .1L376 171.9c-.1-2.6.2-4.6 1.1-6.9.7-1.9 1.9-3 3.1-4.1.7-.7.7-1.5.1-1.9-.7-.5-4-3.2-4.7-3.6-.6-.4-1.1-.5-2.4.3-.5.4-22.8 14.2-35.3 22 5.4-9.1 4.5-15.9 1.7-18.4-4-3.5-12-1.7-18.9 3.9l-31.9 20.2s13.4-21.2 13.8-22.2c.5-1 .1-1.9-.6-1.9h-6.4c-.9 0-2 .7-2.6 1.7-.4.7-1 1.6-1.6 2.6-.4-1.3-1-2.3-2-3-5.1-3.9-14.3-2.6-21.5 3.5-4.5 3.3-26.4 19.2-30 21.8-3.6 2.7-5.3.7-2.9-3 2.5-3.8 6.5-10.2 8.4-13.3 2.4-4 1.9-9-1-10.5-3.1-1.4-8.2-1.4-15.1 3.7-1.1.7-1.7 1.2-2.8 2.1 1.4-2.7 1.9-3.6 2.1-5.2.2-1.6-.6-2.2-2.5-1.9-7 1-12.6 1.9-20.9 2.1h-1.7c8.7-10.8 17.1-23.9 24.5-39.1-3.2.8-6.7 1.3-10.4 1.3h-.2c-7.8 14.5-16.4 27.1-25.5 37.4-14.7-1.7-34.4-9.5-37.3-40.8H146c1.5 25.6 14.9 42 39.4 45.4-15.7 16.3-30.8 25.9-45.6 25.9-16.9 0-25-10.1-28.1-19.9 5.4 1.2 7.9 1.4 15.2.4 6-.9 10.5-3.4 13-5.1 1.5-1 1.1-1.6-.9-1.4-4.2.6-11.9 1.3-18.7.6-8.1-.8-12.8-2-16.8-3.9-3.9-1.9-5.4-.4-4.2 2.7 5.9 16.2 17.1 33.1 41.5 33.1 18.9 0 38.4-11.2 56.4-31.6h2.4c5.2-.2 10.2-.5 15.7-1.3-.9 1.7-2.2 3.6-4.3 7.1-2.8 4.4-9.6 15.1-12.3 19.2-.7 1.1-.1 1.7.7 1.7h6.8c1 0 1.7-.6 2.3-1.6 1.6-2.5 3.7-5.8 6.5-10.1 3.2-5 7.2-8.6 9.9-10.8 5.2-4.5 9.5-6.4 10.7-6.1.8.1 1.7 1.8-.1 4.5s-7.2 9.9-9.7 14.5c-2.2 4-1.9 9.3 3.3 10.4 4.2.9 7.8-1.5 12.5-4.8 2.6-1.9 11.5-8.5 18.8-13.9-2.9 6.7-2.5 13.5 1.7 16.7 3.7 2.8 8.7 1.8 14.2-2.1-.5 1.1-1.1 2.2-1.7 3.4-9 5.3-14.2 8.1-23 15.6-6.5 5.6-9.3 12.6-5.4 16.4 6.1 6 16.9-2.1 24.9-13.5 3.1-4.5 13.1-19.9 13.1-19.9l28.7-18c-3.5 7-3.1 14.3 1.2 17.9 4.4 3.6 10.3 1.9 15.9-3.2l38-24c-.2.7-.4 1-.4 1.9 0 3.5.4 6.1.6 10.5 0 0-7 3.6-9.1 4.6-3.2 1.5-6.3 4.2-5.9 7.9.3 3.6 3.3 6 7.7 6 6.7 0 14.5-4.6 15-17.5v-.9l27-13.7c-.2.7-.7 1.6-.7 3.1-.2 3.5.4 6.1.5 10.5 0 0-6.9 3.6-9 4.6-3.1 1.5-6.3 4.2-5.9 7.9.2 3.6 3.3 6 7.7 6 6.6 0 14.4-4.6 15-17.5v-.9l25.8-12.2c-4.5 7.1-7.7 12.1-7.7 12.1-.3.5-1.1 1.7-1.5 2.4-4.8 8.6-3.6 14.2 1.7 14.2 4.2 0 7.4-2.3 12-5.6 3.2-2.3 24.8-16.3 34.2-22.4 1.2 3.4 4.7 5.2 8.1 5 0 0-6.3 9.7-7.4 11.9-3.6 6.9-1.8 11.1 3.6 11.1 4.2 0 7.4-2 12-5.2 2.5-1.8 10.8-7.9 18.1-13.3-2.8 6.6-2.2 13.3 1.9 16.6 4 3.3 12.7-.4 17.1-5.6-.7 4.2.5 7.5 4.1 7.5 4.2 0 7.3-2.3 11.9-5.6 2.6-1.9 14.6-10.1 24.6-16.9-1.9 3-12.4 19.5-13 20.4-.7 1.1.2 1.5.7 1.5h7.1c.9 0 1.6-.6 2.1-1.4.6-.8 8.6-13.2 8.6-13.2.6 6 2.4 14.8 7.3 15.7 5.5 1 10-2.3 15.2-5.8 3.7-2.6 12.3-9.1 20.4-15.3-3.3 5.2-10.9 17.3-11.4 18.1-.8 1.1-.5 1.8.4 1.8h6.5c1.4 0 2.1-.8 2.9-1.8.7-1.1 8.4-13.3 8.4-13.3 2.6-2.7 5-5.2 7.1-7.2 4.6-4.6 8.1-6.4 9.3-6.2.9.1.6 1.8-1.2 4.5-1.8 2.7-7.2 9.9-9.7 14.5-2.2 4-2.9 8.8 2.3 10.1 4 1 8.7-2 13.4-5 2.3-1.5 6.5-4.5 8.2-6.1 1.2-1.2 1.1-2.4.7-3-.7-1.1-1.6-.8-2.5 0-3.1 2.8-7.9 5.9-10.2 7.2-3.9 2.3-5.1 1.1-2.7-2.6 2.4-3.8 6.5-10.2 8.4-13.3 2.5-4 3.2-9 .1-10.5-3-1.4-8.4.2-14.8 5.3-.4.4-1 .8-1.3 1.2l5-7.8c.2-.2.5-.3.7-.5 10.2-7 20.9-14 26.4-18.9 5.4-4.6 15.9-14.2 10.7-18.8zm-73.3 18.2c6.2-7.8 16.8-19 20.6-15.4 2 1.8-.7 6.1-11.4 14.7-6.3 5.1-13.7 10.6-20.1 14.5 3.3-4.2 8.1-10.4 10.9-13.8zm-142.6 7.4h10l-14.2 6.7c1.4-2.3 2.8-4.5 4.2-6.7zM266.1 208c-3.9 6.8-11.1 15-15.4 12.5-2.4-1.4-.4-6.3 7.3-13.1 4.1-3.5 13.4-9.3 13.4-9.3-2 3.7-3.9 7.3-5.3 9.9zm16-31.8c-5.7 9.6-12.4 12.9-14.7 11.1-2.4-1.7-.4-8.2 4.9-15.3 5.2-7.1 10.4-10.6 13.2-9.3 3.5 1.6 1.2 5.9-3.4 13.5zm49.8 2.1c-5.3 7.1-10.5 10.4-12.9 8.6-2.3-1.7.1-7.9 5.4-15 5.3-7.1 9.5-10.6 11.9-8.8 2.4 1.8.9 8-4.4 15.2zm28.9 12c-2.2.1-3.4-1.2-3.5-2.7-.2-1.8.7-2.7 2.3-3.6.9-.5 8.3-4.4 8.3-4.4-.4 8.4-3.9 10.6-7.1 10.7zm34.6 0c-2.1.1-3.3-1.2-3.4-2.7-.2-1.8.7-2.7 2.3-3.6 1-.5 8.4-4.4 8.4-4.4-.6 8.4-4.2 10.6-7.3 10.7zm136-14c-4.9 8.4-11.7 12.1-14.1 10.4-2.3-1.7-.9-7.1 4.1-14.3 5.1-7.4 9.7-10.9 13-9.5 3.5 1.4 2.3 4.3-3 13.4zm45.7-3.5c1.1-2.1 3.6-4.6 6.2-6.7 2.5-2 7.5-4.6 8.8-2.3 1.3 2.5-.5 6.3-5.3 8.1-3.1 1.1-7 1.4-9.7.9zm82.2-36.1c-6.4 5.2-14 10.4-18.7 13.4 3.6-5.1 6.9-9.3 9.8-12.8 6.2-7.8 17.1-18.9 20.8-15.3 1.5 1.5-1.2 6.1-11.9 14.7zM233.1 9.4c10.6.7 13.3 12.1 11.4 28.2 2.7 2.9 5 6.3 6.8 10 5.4-27.5 1.7-45.2-14.9-47-14-1.5-36.1 7.9-54.9 27.1H192c14.1-12 29.4-19 41.1-18.3z"/><g id="XMLID_133_"><path id="XMLID_144_" class="st1" d="M1034.5 76.4c0 2.1-1.7 3.9-3.9 3.9-2.1 0-3.8-1.7-3.8-3.9 0-2.1 1.7-3.8 3.8-3.8 2.2 0 3.9 1.7 3.9 3.8"/><path id="XMLID_143_" class="st2" d="M1050.6 98.2c0 3.3-2.6 5.9-5.9 5.9-3.3 0-5.9-2.6-5.9-5.9s2.6-5.9 5.9-5.9c3.3 0 5.9 2.7 5.9 5.9"/><path id="XMLID_142_" class="st3" d="M1057 127.9c0 4.1-3.3 7.4-7.4 7.4-4.1 0-7.4-3.3-7.4-7.4 0-4.1 3.3-7.4 7.4-7.4 4.1 0 7.4 3.3 7.4 7.4"/><path id="XMLID_141_" class="st4" d="M1052.5 156.8c0 5.1-4.2 9.3-9.3 9.3-5.1 0-9.3-4.2-9.3-9.3 0-5.1 4.2-9.3 9.3-9.3 5.1 0 9.3 4.2 9.3 9.3"/><path id="XMLID_140_" class="st5" d="M1032 182.6c0 5.4-4.4 9.9-9.9 9.9s-9.9-4.4-9.9-9.9 4.4-9.9 9.9-9.9 9.9 4.4 9.9 9.9"/><path id="XMLID_139_" class="st6" d="M1001.1 196.1c0 6.9-5.6 12.5-12.5 12.5s-12.5-5.6-12.5-12.5 5.6-12.5 12.5-12.5c7 0 12.5 5.6 12.5 12.5"/><path id="XMLID_138_" class="st7" d="M959.6 192.9c0 8.3-6.7 15-15 15s-15-6.7-15-15 6.7-15 15-15 15 6.7 15 15"/><path id="XMLID_137_" class="st8" d="M925.6 162.9c0 9.4-7.6 17-17 17s-17-7.6-17-17 7.6-17 17-17c9.3 0 17 7.6 17 17"/><path id="XMLID_136_" class="st9" d="M913.1 112.9c0 10.2-8.3 18.5-18.5 18.5s-18.5-8.3-18.5-18.5 8.3-18.5 18.5-18.5 18.5 8.3 18.5 18.5"/><path id="XMLID_135_" class="st10" d="M937.8 61.8c0 12.1-9.8 21.9-21.9 21.9-12.1 0-21.9-9.8-21.9-21.9s9.8-21.9 21.9-21.9c12.1 0 21.9 9.8 21.9 21.9"/><path id="XMLID_134_" class="st11" d="M995 32.3c0 14-11.3 25.3-25.3 25.3s-25.3-11.3-25.3-25.3S955.7 7 969.7 7 995 18.3 995 32.3"/></g><path id="XMLID_130_" class="st11" d="M813.2 52.4h-88.3V35.9h118.5L741.7 191.7h-20.1l91.6-139.3z"/><path id="XMLID_85_" class="st11" d="M855.9 183c0 6.9-5.6 12.5-12.5 12.5s-12.5-5.6-12.5-12.5 5.6-12.5 12.5-12.5 12.5 5.6 12.5 12.5"/></svg>