<svg xmlns="http://www.w3.org/2000/svg" viewBox="0 0 1074.72 221.14"><defs><style>.cls-1{isolation:isolate}.cls-2{fill:#3899ec}</style></defs><title>insurion</title><g id="Blue_Fill" data-name="Blue Fill" class="cls-1"><path class="cls-2" d="M183.12 21.6h-.48v-1.44h-.48v-1h-.48v-1.4l-.48-.24v-.72l-.48-.24v-.72l-1.2-1 .24-.48-.76-.44v-.72l-1-.72v-.72l-.72-.48L173 6.72h-.72L170.88 5h-.72l-.48-.72a4.29 4.29 0 0 0-2.16-.72v-.44h-1v-.48h-1v-.48h-1v-.48h-1.32l-.2-.48h-1.2l-.24-.48h-1.2l-.28-.72h-13.2v.72h-1.44v.48H144l-.24.48h-1.2l-.24.48h-.72l-.24.48h-.72l-.24.48h-.72l-.24.48h-.72v.24a2.13 2.13 0 0 1-1.2.24c-.38 1.36-.41.48-1.2 1l-1.44 1.68h-1v.44h-.48v.48h-.4v.48h-.48v.48H132v.48h-.48v.48H131v.48h-.48v.48c-1.34.4-.24.33-.72 1.2h-.2l-.72 1h-.48v1h-.48v.48h-.48v1a1 1 0 0 0-.48.48h-.48V17l-.48.24V18l-.48.24V19l-.72.48.24 1-.72.48a1.1 1.1 0 0 0 .24 1l-.72.48v1.92h-.48v3.24l-.48.24v4.8l.48.24v3.84h.48a3.08 3.08 0 0 0 .24 1.68l.48.24a2 2 0 0 0-.24 1.44h.24a2.45 2.45 0 0 1-.72 1.68h-1v.48h-1v.48h-1v.48a2.27 2.27 0 0 0-1.68.72v.24h-.72l-.24.48h-.6l-.24.48h-.72l-.24.48h-.72l-.72 1h-.72l-.24.4h-.72l-.48.72h-.72l-.24.48h-.72v.24l-.72.24v.52h-1v.48h-1v.48h-1v.48a2.27 2.27 0 0 0-1.68.72v.24H105l-.24.48h-.72l-.24.48h-.6l-.2.44h-.72l-1 1.2h-.72l-.24.48h-.72l-.24.48h-.72v.24l-.72.24v.48H97v.48h-1v.48h-1v.52a2.27 2.27 0 0 0-1.68.72v.24h-.68l-.24.44h-.72l-.48.72h-.72l-.24.48h-.72l-.24.48h-.72l-.72 1h-.72l-.24.48h-.72v.24a2.13 2.13 0 0 1-1.2.24v.48h-.48v.48h-1v.48h-1v.48c-1.07.07-1 .37-1.92.48l-.24.72h-.4v.48a2.28 2.28 0 0 0-1.2.24v.24H78l-.24.48H77l-.24.48h-.68l-.72 1h-.72l-.24.48h-.72l-.24.48h-.72v.24a2.13 2.13 0 0 1-1.2.24v.48h-1a3.62 3.62 0 0 1-.72 1.2h-1v.48h-1v.48H67v.44h-.52v.48a2.28 2.28 0 0 0-1.2.24v.24h-.72l-.24.48h-.72l-.24.48h-.72l-.72 1h-.72l-.2.44h-.76L60 77h-.72l-.48.72h-.72V78a2.12 2.12 0 0 1-1.2.24v.48h-.48v.48h-1v.48h-1v.48h-1l-.72 1h-.6l-.24.48h-.72l-.24.48H49.2l-.2-.52h-.52v-.48H48v-.48h-1v-.48h-.44v-.48h-1v-.48a2.34 2.34 0 0 1-1.68-.72v-.24h-1.2l-.24-.48h-.68l-.48-.76h-.72l-.24-.48h-1.2l-.24-.48H37v-.44h-2.4l-.24-.48h-8.68l-.24.48H23v.48h-1.88l-.24.48h-1.2l-.24.44h-.72l-.48.72h-.72l-.24.48h-1.2v.24a2.25 2.25 0 0 1-1.68.72v.48h-1v.48H13v.48h-1v.48h-.48v.52H11v.48h-.44v.48c-1.09 0-1.48.31-1.68 1.2H8.4v.48h-.48v.48h-.48v1H7v.48h-.52v.48H6v.48h-.48v1H5v.48h-.44c-.18.65-.06.55-.72.72v1h-.48v1a1 1 0 0 0-.48.48H2.4v1.44l-.48.24v.72l-.48.24v1.2l-.44.08v1.44H.48v1.92H0v13.2l.48.24v1.2L1 114v1.92h.44v1h.48v1h.48v1.44h.48A2.21 2.21 0 0 0 3.6 121h.24v.72l1 .72v.72l1.2 1v.72l3.12 2.88 1.44 1.68h.72l1.2 1.44h.68l.72 1h1c.31 1.12.21.3 1 .72v.24A2 2 0 0 0 17 133v.48h1v.48h1v.48h1.4l.24.48h1.2l.24.48h2.4v.48h11l.24-.48h2.16l.24-.48h1.2v-.24a2.28 2.28 0 0 1 1.2-.24v-.48H42v-.48a2.26 2.26 0 0 0 1.2-.24V133h.72l.24-.48h.72l.48-.72h.72l.72-1h.72c.68-.4.09-.79 1.44-1v.48h.48v.48h.48c.12 1.65 1.29 2 2.16 2.88l.24.48.48.24v.72l1.92 1.68 1.2 1.44.48.24v.72l3.6 3.36v.72l2.4 2.16v.24l.48.24v.72l2.88 2.64.24.52.48.24v.72l2.4 2.16v1c1.38.37 2.36 2.39 3.6 3.12v1H73v.48h.48v.48h.48v.48a4.68 4.68 0 0 1 1.44 1v1h1v1c.65.18.55.06.72.72h.48v.48h.4v.48h.48v.48H79v1h.48v.48h.48v.48h.44v.48h.48v.48h.48v.48c1.39.43.43.69 1 1.44h.24v.24h.4v.48h.48v.48H84v.48h.48v.48H85v.48h.48v.48h.48v1h.44v.48h.48v1h-.48v.48h-.48v1h-.48v1a1 1 0 0 0-.48.48h-.48v1l-.48.24v.76l-.72.48.24 1-.48.24a2.33 2.33 0 0 0 0 1.92c-.48.14-.21 0-.48.24h-.24a2.34 2.34 0 0 0 .24 1.68l-.72.24v3.84l-.48.24v2.88l.48.24v3.84c.48.14.21 0 .48.24h.24a4.22 4.22 0 0 0-.24 1.68l.68.24c-.14.48 0 .21-.24.48a2.52 2.52 0 0 0 .24 1.44l.48.24v.72l.52.2v1.2l.48.24v.72h.24a2.14 2.14 0 0 1 .24 1.2h.48v1h.48v1h.48v.48a2.8 2.8 0 0 1 1 .48v1a3.62 3.62 0 0 1 1.2.72v.48c.48.14.21 0 .48.24h-.28l.2.6h.48v.48H90v.48h.48v.48H91v.48h.48v.48h.48v.48h1v.48c.86.23 1 .8 1.68 1.2v.48h1v.52H96v.48a2.28 2.28 0 0 1 1.2.24v.24h.72l.24.48h.72l.24.48h.72l.24.48h.72l.24.48h1.2l.24.48h1.44c.14.48 0 .21.24.48.67.59 3.18.24 4.32.24H120c.14-.48 0-.21.24-.48v-.24h1.68l.24-.48h1.44v-.48h1v-.48a2.13 2.13 0 0 0 1.2-.24v-.28h.72l.24-.48h.72l.24-.48h.72l1.2-1.44h.72l1.44-1.68h.72l.48-.72 2.16-1.92V211l1.68-1.44a7.49 7.49 0 0 0 .24-1l1.2-1-.24-.48 1.2-1v-.72l.48-.24v-.72l.48-.24v-1.36h.48v-1h.48v-1.4h.48v-1.92l.48-.24v-2.4h.48v-9.12h-.48v-2.88l-.48-.24v-1.44h-.48v-1.44h-.48v-1h-.48v-1.44l-.48-.24v-.72l-.48-.24v-.68l-.48-.24v-.72L137 174v-.72l-1.92-1.68v-1h-.48l-2.4-2.64a7.76 7.76 0 0 0-1-.24l-1.44-1.68h-.72l-.72-1h-.72l-.24-.48h-.72l-.24-.48h-.72v-.24a2.14 2.14 0 0 0-1.2-.24v-.4h-1v-.48h-1.44v-.48h-1.44l-.24-.48h-1.2l-.36-.76h-3.12l-.24-.48h-6.72l-.24.48h-2.64v.24h-.48v.48h-1.92v.48H102l-.24.48h-1.2l-.24.48h-.72l-.24.48h-.72v.24a2.14 2.14 0 0 1-1.2.24v.48h-1v.48H96v.48h-1v.48h-.44v.48h-.48v.48l-1.2.24v.48h-.48v.48h-.48v.48c-1.48-.2-1.81-1.52-2.88-2.16v-1h-.48v-.48h-.48v-.48h-.48v-.48h-.48v-.48a2.8 2.8 0 0 1-1-.48v-1c-1-.28-1.32-1.19-2.16-1.68v-.48h-.44v-.36H83v-.48h-.44v-1h-.48v-.48h-.48v-.44h-.48v-.48h-.48v-.48h-.48v-.48h-.48v-.48h-.48c0-.92 0-1-.72-1.2v-.48H78v-.48h-.48v-.48H77v-.48h-.44v-1h-.48v-.48h-.48v-.48h-.48v-.48h-.48a4.45 4.45 0 0 0-1.2-1.68h-.24v-.72H73l-1.44-1.68H71v-.44h-.44v-.48h-.48v-.48h-.48v-1l-.48-.24-1.44-1.68-.48-.24v-.68l-2.2-1.92-1-1.2-.4-.28v-.72L60 133l.24-.48-2.64-2.4v-.72l-2.88-2.64v-.24L54 126c-.19-.28.18-.17.24-.24 0-.36-.26-.32-.48-.48A4.68 4.68 0 0 1 55 123.6h.2v-.72l1-.72v-.72l.48-.24v-.72h.24a2.13 2.13 0 0 0 .24-1.2h.44v-.48h.48v-1.44h.48v-1H59V115l.48-.24v-1.2l.72-.48c.36-.77-.15-2.14-.24-2.64.48-.14.21 0 .48-.24.41-.46.24-1.79.24-2.64v-6h-.2a1.25 1.25 0 0 1-.48-1h.24a4.32 4.32 0 0 0-.24-1.92h-.48v-1.92l-.52-.24v-.72l-.48-.24v-1.2l-.48-.24v-1.44h-.44v-1h-.48v-1h-.48v-.4h-.48c-.07-1.24-.51-1.16-1-1.92a.42.42 0 0 1-.16-.24l.72-.48v-.24h.68l.48-.72a4.27 4.27 0 0 1 2.12-.72v-.48h1c.38-1.37.43-.47 1.2-1l.48-.72h1v-.44h1v-.48h1v-.48H65v-.48a2.27 2.27 0 0 0 1.2-.24v-.24h.8l.24-.48h.72l.72-1h.72l.24-.48h.72l.2-.4h.72l.24-.48h.72l.24-.52a4.13 4.13 0 0 1 2.64-1.2v-.48h1v-.48h1v-.48h.48v-.48a2.27 2.27 0 0 0 1.2-.24v-.24h.72l.24-.48h.64l.72-1h.72l.24-.48h.72l.48-.72H84l.24-.48H85l.24-.48h.72v-.2a2.18 2.18 0 0 1 1.68-.72v-.48h1v-.48h1v-.48a2.27 2.27 0 0 0 1.68-.72v-.24h.72l.12-.44h.72l.24-.48h.72l1-1.2h.72l.24-.48h.72l.24-.48h.72l.24-.48h.68v-.28a2.18 2.18 0 0 1 1.68-.72v-.48h1v-.48h1v-.48c1.48-.11 1.37-.92 2.64-1.2v-.48h1v-.48a2.26 2.26 0 0 0 1.2-.24v-.24h.72l.72-1h.64l.24-.48h.72l.24-.48h.72l.24-.48h.72l.72-1h.72l.24-.48 2.16-.72v-.4h1v-.48h.48v-.48h1v-.48a2.26 2.26 0 0 0 1.2-.24v-.24h.6l.72-1h.72l.24-.48h.72l.24-.48h.72l.24-.48h.72l1-1.2h.68l.24-.48h.76l.24-.48h1.2v.48h.48a2.41 2.41 0 0 0 1 1.92l.48.24v.72h.24l1 1.2h.36v.48h.48v.52h.52v.48h1v.48h.48v.48h.48a3.62 3.62 0 0 0 .72 1.2h1v.48h.32v.48h1v.48h1v.48h.48v.48h1.44l.24.48h.72l.24.48h.72l.16.48h1.2l.24.48h1.92v.48a.53.53 0 0 1 .48.24H149l.28.52h8.64l.24-.48h2.16l.48-.72h1.68l.24-.48h1.44v-.52h1v-.48h1.44v-.48a2.17 2.17 0 0 0 1.68-.72v-.24h.72l.24-.48h.72l.72-1h.72l1.44-1.68h.72L174 53l2.64-2.4v-.68l1.44-1.2v-.24l.48-.24v-.72l1.2-1-.24-.48.72-.48v-.68l1-.72V43h.24a2.16 2.16 0 0 0 .24-1.2h.48v-1h.48v-1.92h.48V37l.48-.24v-13l-.48-.24V21.6zm-129.6 89.52l-.72.24.24 1.2-.72.24v1.44h-.48a2.47 2.47 0 0 1-.48 1.92l-.48.24v.72l-.48.24v.72l-.48.24v.68L48 120.72v.72h-.24l-1.44 1.68h-.72L43.92 125h-.72l-1 1.2h-.68l-.24.48h-.72l-.24.48h-.72l-.24.48h-1.44v.48h-1.44v.48h-2.4l-.24.48h-7.68l-.24-.48H24v-.48h-1.92v-.48h-1v-.44a2.17 2.17 0 0 1-1.2-.24v-.24h-.68l-.2-.48h-.76l-.24-.48h-.72l-1-1.2h-.68l-1.2-1.44-2.88-2.64v-.72l-.52-.24a4.39 4.39 0 0 1-1.44-2.88h-.44v-1h-.48v-1h-.48v-1.44h-.48v-1.44l-.48-.16V109l-.72-.48.24-1.52a23.82 23.82 0 0 0-.24-4c.48-.14.21 0 .48-.24h.24v-1.96H7v-.24l.72-.48V98.4l.48-.24v-.72l.48-.24v-1.44h.44v-1h.48v-1h.48v-.4h.48v-1H11v-.44h.48v-.48H12c.12-1.91 1.87-2.3 2.64-3.6h1v-.48h.48v-.48h.48v-.48h1v-.48h.4v-.48h1V85a2.37 2.37 0 0 0 1.2-.24v-.28h1.2l.48-.72h.72l.24-.48h1.68l.24-.48h2.84v-.48h4.8v.48h2.88l.24.48h1.68v.24a2.29 2.29 0 0 0 1.2.24c.14.48 0 .21.24.48v.24h1.2v.24A2.11 2.11 0 0 0 41 85v.48h1v.48h.48v.44h1v.48l.72.24v.24h.72v.24l1 .72v1a3.64 3.64 0 0 1 1.44 1v.24H48v.24l1 .72v1h.48V93h.48v1h.44v.48h.48v1.44h.48v.48h.48v1.44l.48.24v1.2l.68.32a1.12 1.12 0 0 0-.24 1l.76.4v10.08zm35 79.92l.48-.24v-4.32l.48-.24V185l.72-.48-.24-1 .72-.48c.22-.5-.33-.73-.24-1l.72-.48V181h.24a2.1 2.1 0 0 0 .24-1.2h.48v-1h.48v-.48h.48v-1h.52v-.48h.48v-.44h.48v-.48H95c.37-1.38 2.39-2.36 3.12-3.6h1v-.48h.48v-.48h1v-.48h1v-.48a2.27 2.27 0 0 0 1.2-.24v-.24h.72l.24-.48h1.2l.24-.48h1.68l.24-.48H110l.24-.72h4.08l.48.72h2.64l.16.52h1.92l.24.48H121l.24.48h.72l.24.48h.72l.24.48h.72l.72 1h.72v.24a2.18 2.18 0 0 0 1.68.72c.34 1.22 1.6 1.84 2.4 2.64l1.2 1.44.48.24v.72l1 .72v.72l.48.24v.72l1 .72v.72l.48.24v1.44h.48v1.44h.48v1.92l.48.24v9.12l-.48.24v1.92h-.6v1h-.48v1.92l-.48.24v.72l-1 .72v.72l-.48.24v.72l-2.16 1.92v.72l-.48.24a4.88 4.88 0 0 0-1.44 1.92 2.49 2.49 0 0 0-1.92 1l-.24.48H125l-.72 1h-.68l-.24.48h-.72l-.24.48h-.72l-.24.48h-.72l-.24.48h-1.92v.48h-1.92l-.24.48H108l-.24-.48h-1.68l-.24-.48h-1.68l-.24-.48h-.72v-.24a2.18 2.18 0 0 0-1.2-.24v-.48h-1v-.48h-1v-.68h-1v-.48h-.36v-.48c-1.73-.47-2.71-2.32-4.08-3.12v-.48h-.48v-1h-.48v-.44h-.48v-1h-.48v-.48h-.48v-1h-.48l-.24-.72h-.24v-.72l-.72-.48c.12-.55.44-.57 0-1.2l-.48-.16.24-1-.72-.44v-1.2l-.52-.24v-3.36c0-.94-.73-1.43-.44-2.2zm88.36-161.28v3.84l-.48.24v2.4h-.48v1.92h-.48v1H175v1.44l-.48.24v.72l-1 .72V43l-1.2 1 .24.48-2.16 1.92-2.64 2.88H167l-.72 1h-.68l-.72 1h-.72l-.24.48h-1.2l-.24.48h-.72l-.24.48h-1.44V53h-2.4l-.48.72h-7.44l-.48-.72h-2.16l-.24-.48h-1.2l-.24-.48h-.72l-.24-.48H143v-.44h-1v-.48h-.4v-.48c-2.8-.19-4.87-4.3-7-5.52v-1a2.8 2.8 0 0 1-1-.48v-1h-.4c-.07-1.07-.37-1-.48-1.92l-.72-.16.24-.72-.72-.24v-1.44l-.52-.24v-1.2l-.44-.24v-2.88h-.48v-5.76h.48V25l.48-.24v-1.2l.48-.24v-1.2l.48-.24c.39-.55.11-.8 0-1.44 1.14-.35.28-.17.72-1l.48-.24c.51-1-.45-1 1-1.44v-1h.48v-.44h.48v-.48h.48v-.48h.48v-.48h.48c.07-1.22.1-.85.72-1.44l.24-.48h.72l1.44-1.68h1v-.48h.48v-.48h1v-.48h1v-.48a2.23 2.23 0 0 0 1.2-.24v-.24h.6l.24-.48h1.2l.24-.48h1.2l.24-.48h3.36l.2-.44H156l.24.48h2.64l.24.48h1.44v.44H162v.48a2.47 2.47 0 0 1 1.92.48l.24.48h.72l.24.48h.72l.72 1h.72l1.44 1.68h.72l1.2 1.44h.24v.72L173 17v.72l1 .72v.76l.48.24v.72h.24a2.15 2.15 0 0 1 .24 1.2h.48v1.44h.48v1.92l.48.28v2.16l.48.24v2.4zm211.2 176.88v-.48h-.48V101l.48-.24v-6.2c0-4.24.37-10 0-13.44H371v12.72h.48v90l-1-.24.24-.72-.72-.24v-.48h-.4v-.48h-.48v-.48h-.48v-.48h-.48v-1h-.48a4.93 4.93 0 0 0-1.44-1.92l-.48-.24v-.72l-3.12-2.84v-.72l-2.4-2.16v-.72l-2.64-2.4v-.72l-2.4-2.16v-.72l-3.12-2.88v-.72l-2.4-2.16v-1c-1.23-.3-2.92-2.68-3.12-3.6h-.48v-.44h-.48v-.48h-.48v-.48h-.48v-.48h-.48v-1h-.48v-.48h-.48v-.48h-.48v-.48c-1.57-.45-.51-1.21-1.2-1.68H341v-.44h-.48v-.48h-.48v-.48h-.44v-.48h-.48v-1h-.48v-.48h-.48v-.48h-.48v-.48h-.48a4.78 4.78 0 0 0-2.64-3.12v-.48h-.48v-.48h-.48v-1l-.48-.24-1.44-1.68-.48-.24v-.72l-1.44-1.2-1-1.2h-.24l.24-.48-3.12-2.88v-.72L323 127l.24-.48-2.64-2.4v-1c-1.14-.31-1.48-1.38-2.4-1.92v-1c-1.23-.33-1.64-1.57-2.64-2.16v-.44h-.48v-1h-.48v-.48h-.48v-.48h-.48v-.44h-.44v-.48h-.48v-1a3.62 3.62 0 0 1-1.2-.72v-.48H311v-.48h-.48v-.44h-.48v-1h-.44v-.48h-.48v-.48h-.48v-.44h-.48v-.48h-.48v-.48h-.48a3.22 3.22 0 0 0-2.2-2.64v-.48h-.48v-1h-.48v-.48h-.44v-.44h-.48v-.48h-.48v-.48h-.48v-1l-.48-.24-1.44-1.68-.48-.24v-.68l-2.4-2.16-1.2-1.44-.48-.24v-.72L291.6 90v-.72l-2.88-2.64v-.72L285.6 83v-.68l-2.4-2.16v-1a3.08 3.08 0 0 1-1.2-.72v-.2h-4.56v12.48l.48.28v119.24h-.48c0 2.3-.42 6.37.24 8.16h11.76c1.81 0 4.36.27 5.76-.24v-1.92h-.48v-12h-.48v-50.16c0-1.23-.25-2.83.48-3.36v-36.24a.42.42 0 0 1 .24.24c.74.51.1.34.48 1l2.64 2.4-.24.48 2.64 2.4v.72l2.88 2.64v.64l2.64 2.4v1h.48v.48c1 .26 1.16 1 1.92 1.44v1c1 .28 1.32 1.19 2.16 1.68v.48h.44v.48h.48v1h.52v.48h.48v.48h.52v.48h.48v.48h.48v1h.48v.48c.65.18.55.06.72.72h.48v.48h.48v.48h.48v1h.4v.48h.48v.48h.52v.48h.48v.48h.52v.48h.48c.08 1.57 1.12 1.83 1.92 2.64l.48.72h.24l-.24.48 2.64 2.4v.72l2.4 2.16v.72l.48.24v.24L330 156v.72l2.4 2.16v.72l2.6 2.4v.72l2.88 2.64v1c1.23.33 1.64 1.57 2.64 2.16v1h.48v.48h.48v.48h.52v.48h.48v.48h.52v1h.48v.48h.48v.48c.86.23 1 .8 1.68 1.2v.4h.48v1h.48v.48h.4v.48h.48v.48h.52v.48h.48v1h.52v.48h.48v.48h.48a2.66 2.66 0 0 0 .72 1.2h.24v.72h.24a1.25 1.25 0 0 0 1 .72v.48h.48v.48h.36v.48h.48v.48h.52v1l.48.24 1.44 1.68.48.24v.72l2.64 2.4v.72L361 193v.24l.48.24v.72l2.88 2.64a7.7 7.7 0 0 1 .24 1L367 200v1h.48v.24l2.64 2.4v.72L373 207v1c1.41.38 2 2 3.12 2.64v1h.48v.48h.4v.48h.48v.48h.52v.48h.48v1h.52v.48h.48v.48h.48v.48h.48c0 1.09.31 1.48 1.2 1.68v.48h.48v.48h.48v1h.4v.48h.48v.48h.52c.14.48 0 .21.24.48.58.52 2.81.27 3.84.24v-14.44c.07-.33.29.1.24-.24h-.24zM484.32 174l-.72-.48v-1.2h.24l-.24-.72h-.48v-1.92h-.48c-.08-2.62-1.8-3.27-1.92-5.52h-.48v-1h-.48v-1a2.8 2.8 0 0 1-1-.48v-1c-.65-.18-.55-.06-.72-.72h-.44v-.36h-.48v-1h-.48v-.48h-.48v-.48h-.48v-.44h-.48v-.48h-.48v-.48h-.48v-1h-.48a1.36 1.36 0 0 0-1.2-1.2v-.44h-1v-.48h-.48v-.48h-.48v-.48h-.48v-.48h-.48v-.48h-.44v-.48h-.48v-.48c-1.57-.1-1.63-1.08-2.64-1.68v-.48h-1v-.48h-.48v-.48h-.48v-.48a2.25 2.25 0 0 1-1.68-.72v-.24h-.72l-.24-.48-.48-.2-.48-.72h-.72l-.24-.48h-.72l-1-1.2h-.64l-.72-1h-.72l-.72-1h-.72v-.2a2.71 2.71 0 0 0-1.2-.72v-.48h-1v-.48h-.48v-.48h-1v-.48h-.48v-.48L449 137v-.48h-.48v-.48h-1v-.44h-.48v-.48h-.48v-.48h-1v-.48A4.56 4.56 0 0 1 444 133v-.24h-.72l-.72-1-4.32-4.08v-1a2.19 2.19 0 0 1-1.44-1.2h-.24l.24-.48h-.24v-.48h-.48v-1h-.48v-.48h-.48v-1.44h-.48v-1h-.48v-1.44l-.48-.24v-1.68l-.48-.24v-8l.48-.24v-2.4h.48v-1.44h.48v-1.44l.48-.24v-.72l.48-.24v-.72l1.2-1-.24-.48 1.44-1.2 3.36-3.6h.72l.24-.48h.68l.72-1H445v-.2a2.25 2.25 0 0 1 1.2-.24v-.48h1.44v-.48H449l.24-.48h2.64l.24-.48h7.92v.48h3.36l.24.48h1.92v.48h1.92v.48H469l.24.48h.72l.24.48h.72l.24.48h.72l.24.48h.72l.16.48h.72l1 1.2h.72l.24.48a4.85 4.85 0 0 0 1.92 1.44v.48h.48a1.73 1.73 0 0 0 1.44 1.92 2.06 2.06 0 0 0 .24 1.2h.24v.72h.24a1.23 1.23 0 0 0 1 .72V88.8c0-2.2.4-5.44-.24-7.2h-2.88v-.48h-2.92l-.2-.48h-2.2l-.24-.48h-2.4v-.48h-1.92l-.24-.48h-2.64l-.24-.48h-2.88v-.48h-12.72l-.24.48h-3.12l-.24.48h-2.4v.48h-1.92l-.24.48h-1.2l-.24.48h-1.2v.24a2.25 2.25 0 0 1-1.2.24v.48h-1.44v.48h-1v.48c-1.07.07-1 .37-1.92.48l-.24.72a2.21 2.21 0 0 0-1.68.72v.24h-.72l-.72 1h-.72l-4.56 4.8-2.12 1.88v.72l-1 .72v.72l-1 .72v1h-.4v1h-.48v1H419v1h-.48v1.44l-.48.24V102l-.72.48.24 1-.72.48a3.2 3.2 0 0 0 .24 1.44l-.72.48v2.4h-.48v6h-.48v.48l.48.24v6.72l.48.24v2.16l.72.48a2.12 2.12 0 0 0-.24 1.44l.72.48a.37.37 0 0 1-.24.48l.24 1h.48v1.44h.48v1.44l.48.12v.72l.48.24v.72l.52.32v.72h.24a2.19 2.19 0 0 1 .72 1.68h.48v1c1.7.45 1.29 1.84 2.64 2.64v.48h.48v.48h.44v1h.48v.48h.52v.48h.48v.48h.52v.48h.48v.48c.86.23 1 .8 1.68 1.2v.4h.48v.48h1v.48h.36v.48h.48v.48h.52v.48h.48v.48c1.32.11 1.67.77 2.4 1.44l.24.48h.72l1 1.2h.72l1.2 1.44h.72l.72 1h.72l.72 1h.72l.24.48h.72v.08a2.19 2.19 0 0 0 1.68.72 1.24 1.24 0 0 0 .72 1v.28h.72v.24l.72.24v.48h1v.48h.48v.48h.36v.48h1v.48h.48v.48h.52v.48a2.91 2.91 0 0 1 2.16 1.2l.24.48h.72l2.16 2.4h.72l.24.48 1.2 1c1 1 1.87 2.39 3.12 3.12v1a4.68 4.68 0 0 1 1.44 1v1h.48v1c1.57.45.51 1.21 1.2 1.68h.48c-.14.48 0 .21-.24.48.09.81 0 .77.72 1 0 .79-.33.82 0 1.44l.48.24v1.2l.48.24v3.84h.4V185l-.48.24v4.32h-.48v1.92l-.72.48a1.07 1.07 0 0 1 .24 1l-.72.48c-.23.5.34.74.24 1l-.72.48v.72l-.48.24v.72h-.24a2.12 2.12 0 0 0-.24 1.2h-.4v.48h-.48v1H462v.48h-.48v.48H461v1h-.48v.48h-.48c-.41 1.53-1.93 1.46-2.64 2.64h-1v.48h-1v.48h-1v.48a2.27 2.27 0 0 0-1.2.24v.24h-.72l-.24.48h-1.2l-.24.48h-2.4v.48h-11.12l-.24-.48h-2.88l-.24-.48h-1.68l-.24-.48h-1.2l-.24-.48h-1.44v-.6h-1.44v-.48h-1.44l-.24-.48h-.72l-.24-.48h-.72l-.24-.48h-.72l-.48-.72h-.72l-.72-1h-.72l-.24-.48h-.72l-.24-.48a5.56 5.56 0 0 0-2.4-1.44v-.48h-.48v-.48h-.48c-.27-1-1.05-1.29-1.68-1.92l-.72-1-.48-.24v-.64H413l-1-1.2h-.4c-.64 1.76-.24 5-.24 7.2v10.08a41.44 41.44 0 0 0 .24 6.48h2.88l.24.48h2.16l.24.48h2.4v.48h1.92l.24.48h2.16l.24.48H426v.48h1.92l.24.48h2.64l.48.72h22.32c.14-.48 0-.21.24-.48v-.24h1.68l.24-.48h1.92v-.48h1.44v-.48h1.44l.24-.48h.72l.24-.48H463l.24-.48h.72l.24-.48h.72l.24-.48h.72l.24-.48a5.19 5.19 0 0 1 2.16-1.2v-.48h1v-.48h.48v-.48h1v-.48h.48v-.48h.48v-.48h.48v-.48h.48V211a2.42 2.42 0 0 0 1.68-1.68h.48v-.52h.48v-.48h.48v-.48h.48v-.48h.48v-.48h.48v-1h.48v-.48h.48v-.4c1.32-.39.26-.32.72-1.2a1.85 1.85 0 0 0 .48-.48h.48v-1h.48v-1h.48v-1h.48a2.38 2.38 0 0 1 .24-1.2h.24V198l.48-.24V197l.48-.24v-1.44h.48v-1.92h.48l.24-.72h-.36v-1.2l.72-.48a7.14 7.14 0 0 0-.24-2.4l.72-.48V176.4l-.72-.48a3.27 3.27 0 0 0 .24-1.92zm572.88-92.88v3.6l.48.24v31.44h.48v67.44l-1-.24v-.48h-.48v-.48h-.48v-.48h-.48v-.48h-.48v-1h-.48v-.48h-.48v-.48h-.48v-.48h-.48l-.24-.72h-.24v-.72l-2.16-1.92v-.24h-.48v-1l-.48-.24-1.44-1.68-.48-.24v-.72l-1.2-1-1.44-1.68-.48-.24v-.72l-2.4-2.16v-.72l-2.64-2.4.24-.48-3.12-2.88v-1c-1.14-.31-1.48-1.38-2.4-1.92v-1c-1.23-.33-1.64-1.57-2.64-2.16v-1h-.48v-.48h-.48v-.48h-.48v-.24h-.48v-.48h-.48v-1a3.62 3.62 0 0 1-1.2-.72v-.48h-.48v-.48h-.48v-.44h-.48v-.48h-.48v-1h-.48v-.48h-.48v-.44h-.48v-.48h-.48v-.48h-.48a3.22 3.22 0 0 0-2.16-2.64v-.48h-.48l.24-.72-.72-.24v-.48h-.48v-.48h-.48v-.48h-.48v-.48h-.48v-.48h-.48v-1l-2.64-2.4.24-.48-2.64-2.4v-.68l-2.4-2.16v-.72l-.48-.24v-.24l-2.64-2.4v-.72l-2.4-2.16v-1c-1.23-.33-1.64-1.57-2.64-2.16v-1h-.48v-.4h-.48v-.48h-.48v-.48a4.69 4.69 0 0 1-1.44-1v-1c-1.23-.33-1.64-1.57-2.64-2.16v-1h-.48V111h-.48v-.48h-.48v-.48h-.48v-.48h-.44v-1h-.48v-.48h-.48v-.48h-.48c-.18-.65-.06-.55-.72-.72l-.24-1.2-.72-.24v-.48h-.48v-.48h-.48V104h-.48v-.48h-.48v-.32h-.48v-1h-.48a4.82 4.82 0 0 0-1.44-1.92l-.48-.24v-.68l-3.12-2.88v-.72l-4.08-3.84c.15-.53.25-.45-.24-1l-3.12-2.88v-.68l-3.12-2.88v-.72l-2.4-2.16v-1a6.66 6.66 0 0 1-2.64-2.4h-4.56v5.52h.48v21.6h.48v94.8h-.48v13.92l-.48.24v4.08h12c1.81 0 4.36.27 5.76-.24v-5.72l-.48-.24v-20.4c-.48-.14-.21 0-.48-.24h-.24v-.24h.24v-1.92h-.24v-.24h.24a3.78 3.78 0 0 1 .48-.48v-69.36c0-1.18.37-3.86-.24-4.56v-.24h.48l1.2 1.44h.24v.72l3.12 2.88v.72l2.4 2.16v1h.48v.24l2.16 1.92-.24.48 3.12 2.88v1h.48v.48h.48l1.2 1.44h.24c.49.89-.61.77.72 1.2v.48h.48v.48h.48v.48h.48v.48h.48v1h.48v.48h.48v.48h.48v.48h.48v.48h.44c0 1.09.31 1.48 1.2 1.68v.48h.48v.48h.48v.48h.48v.48h.48v1h.48v.48h.48v.48h.48a2.78 2.78 0 0 0 .72 1.2h.24v.72l2.64 2.4a7.72 7.72 0 0 0 .24 1l2.64 2.4v.72l2.64 2.4-.24.48 2.64 2.4v.72l3.12 2.88-.2.24 2.64 2.4v1c1.14.31 1.48 1.38 2.4 1.92v1c1 .28 1.32 1.19 2.16 1.68v.48h.48v.48h.48v1h.48v.48h.48v.48h.48v.48h.48v.48h.48v1h.44c.18.65.06.55.72.72v.4h.48v.48h.48v.48h.48v1h.48v.48h.48v.48h.48v.48h.48v.48h.48v1h.24l2.4 2.64h.48l-.24.72 2.16 1.92v.24l.48.24v.72l1.68 1.44.24.48.48.24v.72l2.88 2.64a7.82 7.82 0 0 1 .24 1l2.4 2.16v.72l2.64 2.4v.72l2.88 2.64v1c1.41.38 2 2 3.12 2.64v1h.48v.48h.48v.48h.48v.48h.48v.48a2.8 2.8 0 0 1 1 .48v1a3.62 3.62 0 0 1 1.2.72v.48h.48v.24h.48v.48h.48v1h.48v.48h.48v.48h.48v.48h.48v.48h.48v1h.48a4.41 4.41 0 0 0 1.2 1.68h.24v.72h.24a1.25 1.25 0 0 0 1 .72v.48h.48v.48h.48a2.45 2.45 0 0 0 .72 1.68h4.32V81.12h-17.56zM938.88 140.4l-.72-.48c-.11-.32.09-.06.24-.24a12.11 12.11 0 0 0-.24-3.12h-.48c.14-.48 0-.21.24-.48.05-1.17.26-1.66-.72-1.92v-1.92l-.48-.24v-1.68l-.48-.24v-1.44h-.48v-1.44h-.48v-1.44l-.48-.24v-1.2l-.48-.24v-1.2h-.24a2.24 2.24 0 0 1-.24-1.2h-.48v-1.44h-.48v-1c-.48-.14-.21 0-.48-.24h-.24l.24-.72-.72-.24v-1h-.48v-1h-.48v-1h-.48a2.22 2.22 0 0 0-.72-1.68h-.24v-.56l-.48-.24v-.72l-1-.72v-.72l-1-.72v-.24l-.72-.48.24-.48-1.2-1v-.68l-1.92-1.68v-1h-.4v-.48h-.48v-.24l-2.16-1.92.24-.72-.72-.24v-.48h-.48v-.44h-.48v-.48h-.48v-.48h-.48v-.48h-.48v-.48h-.48v-.48h-.48v-.48c-1.74-.11-2-1.47-3.12-2.16v-.48c-1.32-.11-1.67-.77-2.4-1.44l-.24-.48h-.72l-.72-1h-.72l-.72-1H907L906 89h-.72l-.72-1h-.72l-.24-.48h-.72v-.16a2.15 2.15 0 0 0-1.2-.24v-.48h-1v-.48h-1v-.48h-1v-.48a2.28 2.28 0 0 1-1.2-.24v-.24h-.72l-.24-.48h-.72l-.24-.48h-1.2L894 83h-.72l-.28-.44h-1.2l-.24-.48h-1.44v-.48h-1.92v-.48h-1.4l-.24-.48h-1.68l-.24-.48h-2.4v-.48h-2.4l-.24-.48h-3.84v-.48h-15.6l-.24.48h-3.36v.48h-2.88l-.24.48h-1.68l-.24.48h-1.92v.48h-1.92v.48h-1.44l-.24.48h-1.68l-.24.48h-1.2l-.24.48h-.72l-.48.72h-.72l-.24.48H839v.48h-1v.48h-1v.48a2.21 2.21 0 0 0-1.2.24v.24h-.6l-.24.48h-.72l-.24.48h-.72l-.28.48h-.72l-.72 1h-.72l-.24.48h-.72l-1 1.2h-.72l-.72 1h-1v.48h-.48v.48h-.36v.48h-1v.48h-.48v.4h-.48v.48a2.16 2.16 0 0 0-2.16 1.68H821v.48h-.48v.48h-.48v.48h-.44v.48h-1v.48h-.48v.48h-.48v.48h-.44c-.34.21 0 .6-.24 1h-.24a4.24 4.24 0 0 0-1.2 1.68H815v.48h-.48v.48h-.48v.48h-.44v.48h-.48v1h-.48v.48h-.48v.48h-.48v.48c-.94.3-.75.18-.48 1a9.3 9.3 0 0 0-1.2 1.2h-.48v1H809v.48h-.48v1a1 1 0 0 0-.48.48h-.44a2.2 2.2 0 0 1-.72 1.68h-.24v.72l-.48.24v.72l-.72.48.24.48-1.2 1v.72l-.48.24v.72l-.48.24V120H803v1h-.48v1h-.48v1.44h-.44v1.44l-.48.24v.72l-.48.24v.92l-.48.24v1.92h-.48a2.51 2.51 0 0 0 0 1.44c-.48.14-.21 0-.48.24h-.2c-.32.53.22 1.45.24 1.68l-.72.48v1.68l-.48.24v2.88h-.48v2.88l-.48.24v17.28l.48.24v3.36h.44v2.4l.48.24v2.16l.72.4-.24.24v1.44l.72.24c-.14.48 0 .21-.24.48.09.81 0 .77.72 1v1.44l.48.24v1.2l.48.24v1.2l.48.28v1.44h.48v1h.48v1.44h.44v1h.48a2.17 2.17 0 0 0 .24 1.2h.28v.72l.48.24v.72l.48.24v.72l.72.48-.24.48h.24a5.75 5.75 0 0 0 .48.48v.72h.24a2.16 2.16 0 0 1 .72 1.68h.48v1h.48v.48h.48v1h.44v.48a2.8 2.8 0 0 1 1 .48v1c.65.18.55.06.72.72h.48v.28h.48v1h.48v.48h.48v.48h.48v.48h.48v1h.48v.48h.48v.48h.44a5.5 5.5 0 0 0 2.64 2.64v.48h.48v.48h.48v.48h.48v.48h.48v.48h.48v.48h.48v.48h.48c.23.86.8 1 1.2 1.68h1v.48h.48v.48h.48v.48h.48v.48h1v.48h.48v.48h.48v.48a2.26 2.26 0 0 1 1.68.72v.24a7.77 7.77 0 0 1 1 .24l.72 1h.72l.24.48h.72l.72 1h.6l.24.48h.76l.24.48h.76l.24.48h.72v.24a2.13 2.13 0 0 0 1.2.24v.48h1v.48h1v.48a3.1 3.1 0 0 1 1.68.24l.16.28h.72l.24.48h.72l.24.48h1.2l.24.48H846l.24.48h1.44v.48h1.92v.48h1.92l.24.48h1.68l.24.48h2.88v.48h3.36l.24.72h15.36l.24-.72h3.84l.24-.48h2.4v-.48h2.4l.24-.48h1.68l.24-.48h1.44v-.48h1.92v-.48h1.44l.24-.48H893l.24-.48h.76l.24-.48h1.2l.48-.72h.72l.24-.48h.72v-.24a2.13 2.13 0 0 1 1.2-.24v-.48h1v-.48h1v-.48h1v-.48a2.25 2.25 0 0 0 1.2-.24v-.24h.72l.24-.48h.72l.72-1h.6l1-1.2h.72l.72-1h.72l.24-.48a5.56 5.56 0 0 1 2.4-1.44v-.48h.48v-.48h1V205h.48c.28-1 1.19-1.32 1.68-2.16h1v-.48h.48v-.48h.48v-.48h.48v-.48h.48v-.52h.48v-.48h.48v-.48h.48c.11-1.74 1.47-2 2.16-3.12h.48v-.48h.48v-.48h.48v-1h.48v-.48h.48v-.48h.48v-1l1.56-1.4-.24-.48h.24l.72-1h.24v-.72l1-.72v-.72l1-.72V186l.48-.24V185h.16a2.17 2.17 0 0 0 .72-1.68h.48v-1h.48v-1c.48-.14.21 0 .48-.24h.24l-.24-.72h.48a2.59 2.59 0 0 0 .24-1.68h.48v-1h.48v-1.28l.48-.24v-.72l.48-.24V174l.48-.24v-1.44h.48v-1.44h.48V169l.48-.24v-1.2l.48-.24v-2.4c.48-.14.21 0 .48-.24h.24c.41-.73-.4-1.71-.24-2.16l.72-.48c.33-.71-.19-2-.24-2.4l.72-.48v-5.28l.48-.24v-8.16l-.48-.24v-4.8zm-16.8 10.32h-.48v6.48h-.48v3.36l-.48.24v1.68l-.48.24v1.92h-.48l-.24.72h.24v1.2l-.68.44.24 1-.72.48c-.23.5.34.73.24 1l-.72.48v1.2l-.48.24v.72l-.48.24v1.44h-.48v1h-.48v1h-.52v1h-.48v1h-.48a2.22 2.22 0 0 1-.72 1.68h-.24v.52l-.72.48.24.52-1.2 1v.72l-1.44 1.2v.72l-1.44 1.2v1c-1.48.4-2.72 2.8-4.08 3.6v.56a2.22 2.22 0 0 0-1.92 1.68h-.48v.48a4.66 4.66 0 0 0-1.68 1.2v.24h-.72l-1.2 1.44h-.72l-1.44 1.68h-.72l-.72 1h-.72l-.24.48h-.72l-.24.48h-.72v.24a2.14 2.14 0 0 1-1.2.24v.48h-1v.48h-1v.48h-1v.48a2.28 2.28 0 0 0-1.2.24v.24h-.6l-.24.48h-1.2l-.48.72h-1.2l-.24.48h-1.68l-.24.48h-1.92v.48h-1.92l-.24.48h-3.36v.48h-12.24l-.24-.48h-3.36v-.48h-1.92l-.24-.48h-1.68l-.24-.48H853l-.24-.48h-1.96v-.48c-1.06-.25-1.17-.72-2.64-.72v-.48h-1v-.48a2.27 2.27 0 0 1-1.2-.24v-.24h-.72l-.24-.48h-.72l-.24-.48h-.72l-.24-.48h-.68l-.24-.48h-.72v-.2a2.18 2.18 0 0 0-1.68-.72 1.27 1.27 0 0 0-.72-1V197h-.72l-.72-1h-1v-.4h-.48v-.48h-.48v-.48h-.44v-.48h-1v-.48h-.48v-.48h-.48v-.48h-.44v-.48h-.48v-.48a3.62 3.62 0 0 1-1.2-.72v-.48h-.48v-.48h-.48v-.48h-.48v-.48h-.48v-.48h-.48v-.48h-.48v-.48h-.48v-1h-.48v-.48h-.48v-.48h-.48v-.48h-.48a2.16 2.16 0 0 0-1.68-2.16l.24-.72a3.36 3.36 0 0 0-1.2-.72 2.27 2.27 0 0 0-.72-1.68h-.24v-.72l-.48-.24v-.72l-.72-.48a4.29 4.29 0 0 1-.72-2.16h-.48v-1h-.48v-1.44c-.48-.14-.21 0-.48-.24h-.24l.24-.72-.72-.24c.14-.48 0-.21.24-.48-.09-.81 0-.77-.72-1v-1.32l-.48-.2v-1.2l-.48-.24v-1.2l-.48-.24v-1.44h-.48v-2.4h-.48v-1.92l-.48-.24v-3.36h-.48V142.8h.48v-3.36l.48-.24v-2.4h.48v-1.92h.48v-1.44l.48-.24v-1.68l.48-.24v-1.2h.24a2.24 2.24 0 0 0 .24-1.2l.72-.24-.24-1.2c.48-.14.21 0 .48-.24h.24l-.24-.72h.48a2.59 2.59 0 0 0 .24-1.68h.48v-1h.48a4.3 4.3 0 0 1 .72-2.16l.72-.48v-.72l.48-.24v-.72l1-.72v-.72l1.2-1-.24-.48.48-.24a6 6 0 0 0 1.68-2.64h.48v-.48h.48v-1h.48v-.48h.48v-.48h.48v-.48h.48v-.36h.48v-.48h.48v-.48h.48V109h.48v-.48c.65-.18.55-.06.72-.72h.48v-.48h.48v-.52h.48v-.48h.48v-.48h.48v-.48h1v-.48h.48v-.48h.48v-.48h.48v-.48a2.26 2.26 0 0 0 1.68-.72v-.24a7.76 7.76 0 0 0 1-.24l.72-1h.72l.72-1h.72l.24-.48h.72l.24-.48h.72l.24-.48h.56v-.16a2.13 2.13 0 0 1 1.2-.24v-.48h1v-.48h1V97a13.73 13.73 0 0 0 2.4-.48l.24-.72h1.92l.24-.48h1.2l.24-.48h1.68l.24-.48h1.92v-.52h3.36l.24-.48h12.24v.48h3.36l.24.48h1.92v.48h1.92l.24.48h1.68l.24.48h1.2l.48.72h1.2l.2.52h.72l.24.48h.72v.24a2.14 2.14 0 0 0 1.2.24v.44h1v.48h1v.48a2.17 2.17 0 0 1 1.2.24v.24h.72l.24.48h.72l.24.48h.72l.72 1h.72l1.44 1.68h.6l1.2 1.44h.8l2.64 2.88h.72v.2l1.2 1v.72l.48.24.24.48 2.88 2.64v.72l1.44 1.2v.72l1.44 1.2v.72l1.2 1-.24.36h.24a5.9 5.9 0 0 0 .48.48v.72h.24a2.16 2.16 0 0 1 .72 1.68h.48v1h.48v1h.48v1h.48v1h.4v1.44l.48.24v.72l.52.12v1.2l.72.48c.09.23-.47.46-.24 1l.72.48a.35.35 0 0 1-.24.48l.24 1h.48a6.4 6.4 0 0 1-.24 1h.24v.48h.48v1.92l.48.24v2.16l.48.24v2.88h.48v6.48h.48v2.4zm-677.52-5.52V94.56l.72-.48v-3.6c0-3 .23-6.71-.24-9.36H227v7.2l.48.24v23.76h.52v74.4h-.48v24.48H227v7.2h18c.47-2.65.24-6.31.24-9.36v-3.6l-.72-.48V145.2zM595 81.36v14.88h.48v71H595v4.32l-.48.24v2.88H594v1.92h-.48v1.92l-.48.24v1.92h-.48v1.44h-.48v1h-.48v1.44l-.48.24v.72l-.72.48.24.48-.72.48v.72l-.48.24v.72l-1 .72v.72h-.24a2.17 2.17 0 0 0-.72 1.68H587v.48h-.48v1h-.48v.48h-.44v.48h-.48v.48h-.48v.48h-.48l-1.44 1.68h-.24v.48H582v.48h-.48v.48H581v.48h-.48v.48a2.49 2.49 0 0 0-1.92 1l-.24.48h-.72l-.24.48h-.72l-.72 1h-.72l-.24.48h-.72l-.48.72h-1.2l-.24.48h-.72l-.24.48H570v.48h-1.92v.48h-2.4l-.24.48h-11.76v-.6h-2.4l-.24-.48h-1.2l-.24-.48h-1.2l-.24-.48h-1.44v-.48h-1l-.24-.72h-1v-.48h-1v-.48h-1v-.48a2.21 2.21 0 0 1-1.68-.72v-.24h-.72l-.24-.48-.48-.24-.48-.72h-.72l-3.36-3.6-1.68-1.44V193l-1.68-1.44v-.76l-1-.72v-1h-.48v-1h-.48v-.48h-.28v-1h-.48v-1h-.48a2.33 2.33 0 0 0-.24-1.2h-.24v-1.2l-.48-.24v-.56l-.48-.24v-1.68l-.72-.48c-.09-.23.47-.46.24-1l-.72-.48v-1.2h.24l-.24-.72h-.48v-1.92l-.48-.24v-2.84h-.48v-4.32l-.48-.24v-64.56l.48-.24V85.92h.48v-4.8h-12.72c-1.87 0-4.54-.29-6 .24V83l.72.48a30.72 30.72 0 0 0-.24 5.52v8.64l.72.24c-.45 2.51-.24 6-.24 8.88v63.36l.72.24v3.84l.48.24v2.88h.48v2.4l.44.28v1.92h.48v1.92h.52v1.44h.48v1.44l.52.28v1.2l.48.24v1.2l.48.24v.72l.72.48-.24.48.72.48a.37.37 0 0 1-.24.48l.24 1h.48v.48h.48v1h.48v1h.4v1h.48v.48h.52a2.19 2.19 0 0 0 .72 1.68h.28v.72l1 .72v.72l1.44 1.2.24.48.48.24v.72l2.4 2.16 3.84 4.08h.6l1.2 1.44h.8l.24.48a4.39 4.39 0 0 0 2.88 1.44v.48h.48v.48h1v.48h1v.48a2 2 0 0 1 1.44.48v.04h.72l.24.48h1.2l.24.48h.56l.24.48h.76l.24.48h1.2l.24.48h1.92v.48h1.92v.48h1.92l.24.48h2.16l.24.48h4.32l.24.72H565l.24-.72H569l.24-.48h2.4v-.48h1.92l.24-.48h1.68l.24-.48h1.92v-.48h1.44v-.48h1V217h1.44l.24-.48h.72l.24-.48h.72l.48-.72h.72l.24-.48h.72l.24-.48h.72l.24-.48h.72v-.28a2.18 2.18 0 0 1 1.68-.72v-.48h.48v-.48h1v-.48h.48V211h.48v-.48h1c.18-.65.06-.55.72-.72v-.48h.48v-.52h.48v-.48h.48v-.48h.48v-.48h1v-.48h.48v-.48h.48v-1h.48v-.4h.48v-.48h.48c.18-.65.06-.55.72-.72v-.48h.48v-.52h.48v-1h.48v-.48h.48v-.48h.48v-1h.48v-.48h.48c.1-1.59.52-1.1 1.2-1.92l-.36-.44h.24l.72-1h.24v-.72l.48-.24v-.64l.48-.24v-.72l.48-.24v-.72l.48-.24v-.72h.28a2.09 2.09 0 0 0 .24-1.2h.48v-1.44h.48v-1.44h.48a3.16 3.16 0 0 1 .24-1.68l.48-.24c.09-.24-.47-.45-.24-1l.48-.24a2.12 2.12 0 0 0 .24-1.44l-.24-.24.72-.48v-1.68l.48-.24v-1.92h.48v-2.4l.48-.24v-3.36h.48v-7.88h.48v-1.2h-.48v-51.36h.48V84.48l.48-.24v-3.12H601c-1.91 0-4.58-.29-6 .24zM739.2 217.2h-.48v-.48h-.48v-.48h-.48v-.48h-.48v-.48h-.48a2.42 2.42 0 0 0-1.68-1.68v-.48h-.48v-.48h-.48v-.48h-.48v-.48h-.48v-.48h-.48v-.48h-.48v-.48h-.48v-1h-.48a5.5 5.5 0 0 0-2.64-2.64l.24-.72c-.67-.4-.82-1-1.68-1.2v-.48h-.48c-.09-1.32-.78-1.68-1.44-2.4l-.48-.24v-.72l-2.16-1.84.24-.48-1.68-1.52v-.72l-1.44-1.2v-1c-1.65-.44-1.79-2.32-3.12-3.12v-1h-.48v-.36h-.48v-.48h-.48v-1h-.48v-.48h-.48v-.44h-.48v-1h-.48v-.48h-.48c0-1.09-.31-1.48-1.2-1.68l-.24-1.2-.72-.24v-.48h-.48v-.48h-.48v-1h-.48v-.48h-.48a2.45 2.45 0 0 0-1-1.92l-.48-.24v-.72l-1.44-1.2v-.72l-1.64-1.36v-.72l-1.44-1.2v-.72l-1.44-1.2v-1h-.48V169l-1-.72v-.72l-1.68-1.44v-1h-.48v-.48h-.44v-.48h-.48v-.48h-.48v-1h-.48v-.48h-.48v-.48h-.48c0-1.09-.31-1.48-1.2-1.68v-.44h-.48c.08-.79.41-.7-.48-1v-.2h1l.24-.48h.72l.24-.48H696l.24-.48h.76l.24-.48h.72l.48-.72h.72l.24-.48h.72V155a2.08 2.08 0 0 1 1.2-.24v-.48h1v-.48h.48v-.48h1v-.48h.48v-.44h.48v-.48a3.22 3.22 0 0 0 2.64-2.16h.48v-.48h1v-.48h.48v-.48h.48v-1h.48v-.48h.48v-.44a1.25 1.25 0 0 0 1-.72h.24V145h.24a2.57 2.57 0 0 0 .72-1.2h.48v-1h.48v-.48h.48v-1h.48v-1h.48v-1h.48a2.23 2.23 0 0 1 .24-1.2h.24v-.72l.72-.48-.24-1 .72-.48a1.1 1.1 0 0 0-.24-1l.72-.48v-1.92h.48v-1.92h.48V127l.48-.24v-11h-.68v-2.96l-.48-.24v-2.16l-.48-.24V109l-.72-.48c-.09-.24.47-.46.24-1l-.72-.48a.6.6 0 0 1 .24-.72l-.24-.72h-.48v-1.44h-.48v-1h-.48a4.28 4.28 0 0 0-.72-2.16l-.72-.48v-.68l-1-.72v-.72l-1.44-1.2c-.47-.54.19-.39 0-.72l-2.64-2.4-3.12-3.36h-.72l-1.4-1.72h-.72l-.72-1h-.72l-.28-.4h-.72l-.24-.48h-.72l-.24-.48a2.44 2.44 0 0 0-1.92-.48v-.48h-1v-.48A2.39 2.39 0 0 1 695 85v-.28h-1.2l-.24-.48h-1.2l-.24-.48H691l-.52-.76h-1.2l-.28-.44h-2.4v-.48h-2.4l-.2-.48h-3.36v-.48H646.8a13.75 13.75 0 0 0-3.84.24v5.76l.48.24v17.76l.72.48c-.47 2.4-.24 5.84-.24 8.64v80.4h.24v.24l-.72.48V210c0 1.08.15 1.94-.48 2.4 0 1.86-.3 4.55.24 6h18v-7.92c0-1.15.21-2.39-.48-2.88v-41.28c0-1.48-.16-3.46.24-4.56h15.6v-.24a1.89 1.89 0 0 1 1-.24v.48h.44a4.31 4.31 0 0 0 .72 2.16l.72.48v.72l.72.48-.24.48 1.2 1v.72l.72.48a4.28 4.28 0 0 1 .72 2.16 2.8 2.8 0 0 1 1 .48v1a2.8 2.8 0 0 1 1 .48v1h.44c0 .92 0 1 .72 1.2v.4h.48l-.24.72.72.24v.48h.48v1h.48v.48h.48v1h.48v.48h.4a2.21 2.21 0 0 0 .72 1.68h.28v.72l1 .72v.72l1.2 1-.24.48 1 .72c.59.69.28 1.13 1.2 1.68v1a2.8 2.8 0 0 1 1 .48v1a2.8 2.8 0 0 1 1 .48v1c1.57.45.51 1.21 1.2 1.68h.48v.24h.48v.48h.48v1h.48v.48h.48v1h.48v.48h.48a2.45 2.45 0 0 0 1 1.92l.48.24v.72l1.44 1.2v.72l1.2 1v.72l1.44 1.2v.72l1.44 1.2v1h.28v.24l1 .72v.72l1.68 1.44v1h.48v.48h.48v.48h.48v1h.48v.48h.4v.48h.48v1h.52v.48c1.57.45.51 1.21 1.2 1.68h.48v.48h.48v.48h.48v.48h23V218h-.44v-.8zm-47-74.16h-.48a3.62 3.62 0 0 1-.72 1.2h-1v.48h-1v.48h-.48v.48h-1v.48h-1.44l-.24.48h-.64l-.24.48h-.72l-.24.48h-1.92v.48h-1.92v.48h-2.88l-.28.44h-16.28V94.32H671v.48h7v.48h2.4l.48.72h1.68l.24.48h1.2l.24.52h.76l.24.48h1.44v.48h1v.44h1v.48h.32v.48a4.32 4.32 0 0 1 2.16.72l.48.72h.72l.48.72 3.16 2.88v1a4.68 4.68 0 0 1 1.44 1v1a1.12 1.12 0 0 1 1 .72h.24l-.24.48h.24v.4h.48v1h.48v1h.48v1.44h.48v1.44l.4.12v1.2l.48.24v2.88h.52V125l-.48.24v2.88H701v1.92l-.48.24v1.2l-.48.24v.72l-.48.24v1.44h-.48v1h-.48v.48c-.48.14-.21 0-.48.24h-.24l-.24 1.2-.72.24v1h-.48v.48H696v.48h-.48v.48H695v1h-.48v.48h-.48v.48h-.44v.48h-.48v.48h-1v.36zm61-61.92v13.2h.48V205.2h-.48v13.2h12.24c1.87 0 4.54.29 6-.24v-6.72l-.72-.48c.71-3.67.24-9.06.24-13.2V187l-.72-.48v-73.96l.72-.48V88.8h-.24v-.24l.72-.48c0-2.12.38-5.27-.24-7h-18z" id="Blue_Fill-2" data-name="Blue Fill"/></g></svg>