<svg id="Слой_1" xmlns="http://www.w3.org/2000/svg" xmlns:xlink="http://www.w3.org/1999/xlink" viewBox="0 0 32 62" fill="#dd6262"><style>.st0{clip-path:url(#SVGID_2_)}</style><defs><path id="SVGID_1_" d="M0 0h32v62H0z"/></defs><clipPath id="SVGID_2_"><use xlink:href="#SVGID_1_" overflow="visible"/></clipPath><path class="st0" d="M27 18h-5V2c0-1.1-.9-2-2-2h-8c-1.1 0-2 .9-2 2v16H5c-2.8 0-5 2.2-5 5v30c0 2.8 2.2 5 5 5v1c0 1.7 1.3 3 3 3s3-1.3 3-3v-1h10v1c0 1.7 1.3 3 3 3s3-1.3 3-3v-1c2.8 0 5-2.2 5-5V23c0-2.8-2.2-5-5-5M12 2h8v2h-8V2zm0 4h8v12h-8V6zM7 20h18v3c0 5-4 9-9 9s-9-4-9-9v-3zm2 39c0 .6-.4 1-1 1s-1-.4-1-1v-1h2v1zm13-3H10v-9.6c0-3.3 2.7-6 6-6s6 2.7 6 6V56zm3 3c0 .6-.4 1-1 1s-1-.4-1-1v-1h2v1zm5-6c0 1.7-1.3 3-3 3h-3v-9.6c0-4.4-3.6-8-8-8s-8 3.6-8 8V56H5c-1.7 0-3-1.3-3-3V23c0-1.7 1.3-3 3-3v3c0 6.1 4.9 11 11 11s11-4.9 11-11v-3c1.7 0 3 1.3 3 3v30z"/><path class="st0" d="M13 44h6v2h-6zm-3-21h12v2H10z"/></svg>