<svg id="Слой_1" data-name="Слой 1" xmlns="http://www.w3.org/2000/svg" viewBox="0 0 723.89 621.6" fill="#dd6262"><defs><style>.cls-1{fill:none}.cls-2{clip-path:url(#clip-path)}.cls-4{clip-path:url(#clip-path-2)}</style><clipPath id="clip-path" transform="translate(-43 -228)"><path class="cls-1" d="M43 228h507.89v386.6H43z"/></clipPath><clipPath id="clip-path-2" transform="translate(-43 -228)"><path class="cls-1" d="M259 463h507.89v386.6H259z"/></clipPath></defs><title>kasko</title><g class="cls-2"><path class="cls-3" d="M432.17 614.56q-13.83 0-27.65-.08c.79.08 1.58.12 2.39.12h50.4c.8 0 1.59 0 2.37-.12q-13.76.08-27.51.08zM73 510.8l-11.4-67c-1.6-12 1.9-47.7 41.7-47.7h388.9c36.3 0 43.2 35.7 41.6 47.4l-6.17 36.21h16.91l5.72-33.6c2.4-16.9-1.2-49.3-34.7-61.9l-1.6-4.9h19.2A16.77 16.77 0 0 0 550 362.5v-25.2a16.77 16.77 0 0 0-16.8-16.8h-38.8L463.6 228H131.9l-30.8 92.5H59.8A16.77 16.77 0 0 0 43 337.3v25.2a16.77 16.77 0 0 0 16.8 16.8h21.6l-1.6 4.9c-33 10.6-37.1 45-34.8 62.1l11.4 67a59.13 59.13 0 0 0 56.3 50.8v25.3a25.22 25.22 0 0 0 25.2 25.2h50.4a25.22 25.22 0 0 0 25.2-25.2v-25.2h119c.19-.39.35-.8.51-1.2l1.47-5a41.09 41.09 0 0 1 1.19-4c.41-1.39 1.17-4 2-6.56H114.7A42.29 42.29 0 0 1 73 510.8zm460.1-173.6v25.2h-24.8l-8.4-25.2h33.2zM144 244.7h307.4l44.9 134.7c-1.4-.1-395.8-.1-397.2 0zM59.8 362.4v-25.2h35.6L87 362.4H59.8zm69.8 201.8h67.3v25.2h-.1a8.45 8.45 0 0 1-8.4 8.4H138a8.45 8.45 0 0 1-8.4-8.4v-25.2z" transform="translate(-43 -228)"/><path class="cls-3" d="M163.2 429.7a42 42 0 1 0 42 42 42.06 42.06 0 0 0-42-42m0 67.3a25.2 25.2 0 1 1 25.2-25.2 25.22 25.22 0 0 1-25.2 25.2m269-67.3a41.88 41.88 0 0 0-41.2 49.95h17.3a24.91 24.91 0 0 1-1.3-7.85 25.2 25.2 0 1 1 50.4 0 24.94 24.94 0 0 1-1.29 7.86h17.29a41.39 41.39 0 0 0 .8-8 42 42 0 0 0-42-41.96zm-72.37 50.38l.09-.09v-.16h.35v-.06a22.3 22.3 0 0 1 2.25-.08h2.44V463.3H230.4v16.8h129.43z" transform="translate(-43 -228)"/></g><g class="cls-4"><path class="cls-3" d="M731.6 619.2l-1.6-4.9h19.2a16.77 16.77 0 0 0 16.8-16.8v-25.2a16.77 16.77 0 0 0-16.8-16.8h-38.8L679.6 463H347.9l-30.8 92.5h-41.3a16.77 16.77 0 0 0-16.8 16.8v25.2a16.77 16.77 0 0 0 16.8 16.8h21.6l-1.6 4.9c-33 10.6-37.1 45-34.8 62.1l11.4 67a59.13 59.13 0 0 0 56.3 50.8v25.3a25.22 25.22 0 0 0 25.2 25.2h50.4a25.22 25.22 0 0 0 25.2-25.2v-25.2h168.2v25.2a25.22 25.22 0 0 0 25.2 25.2h50.4a25.22 25.22 0 0 0 25.2-25.2v-25.3c28.4-1 52.5-22.4 56.3-50.5l11.5-67.5c2.4-16.9-1.2-49.3-34.7-61.9zm17.5-47v25.2h-24.8l-8.4-25.2h33.2zm-389.23-92.11l.06-.06v-.19h.07v-.13h307.4l44.9 134.7c-.79-.06-125.65-.08-235.16-.07l-5.38.07c-13.2.15-26.4.16-39.6.16s-26.4 0-39.6-.16l-4.58-.06c-42.9 0-72.51 0-72.89.06zM275.8 597.4v-25.2h35.6l-8.4 25.2h-27.2zm137.1 227h-.1a8.45 8.45 0 0 1-8.4 8.4H354a8.45 8.45 0 0 1-8.4-8.4v-25.2h67.3v25.2zm269 0h-.1a8.45 8.45 0 0 1-8.4 8.4H623a8.45 8.45 0 0 1-8.4-8.4v-25.2h67.3v25.2zm67.9-145.9L738.3 746a42.22 42.22 0 0 1-41.7 36.4H330.7a42.29 42.29 0 0 1-41.7-36.6l-11.4-67c-1.6-12 1.9-47.7 41.7-47.7h388.9c36.3 0 43.2 35.7 41.6 47.4z" transform="translate(-43 -228)"/><path class="cls-3" d="M379.2 664.7a42 42 0 1 0 42 42 42.06 42.06 0 0 0-42-42m0 67.3a25.2 25.2 0 1 1 25.2-25.2 25.22 25.22 0 0 1-25.2 25.2m269-67.3a42 42 0 1 0 42 42 42.06 42.06 0 0 0-42-42m0 67.3a25.2 25.2 0 1 1 25.2-25.2 25.22 25.22 0 0 1-25.2 25.2" transform="translate(-43 -228)"/><path class="cls-3" d="M403.4 470.3h134.5v16.8H403.4z"/></g></svg>