<svg id="Layer_3" data-name="Layer 3" xmlns="http://www.w3.org/2000/svg" viewBox="0 0 349.8 159.36"><defs><style>.cls-1{fill:#616265}.cls-2{fill:#002663}.cls-3{fill:#fff}</style></defs><title>Liberty</title><path class="cls-1" d="M183.83 121.49c0 3.24 1.36 4.25 6.21 4.25s7.09-1.48 10.26-8h1.14L200.31 128h-30.17v-1.15c4.52-1.15 5-2.16 5-6.41V95.16c0-3.51-.87-4.52-5-5.54v-1.14h18.69v1.15c-3.91 1-5 1.82-5 5.27v26.6zm30.31 1.01c0 2.57 1.29 4 4.12 4.33V128h-16v-1.15c3.44-.68 4.25-1.62 4.25-4.86v-13.6c0-3.11-.88-4-4.59-4.73v-1.15l11.07-.94h1.15v20.93zm-3.78-36.78a4.38 4.38 0 0 1 4.39 4.38 4.44 4.44 0 0 1-4.39 4.46 4.5 4.5 0 0 1-4.46-4.46 4.44 4.44 0 0 1 4.46-4.38zM230.75 108c2.56-2.36 3.91-3 5.94-3 4.52 0 7.56 4.33 7.56 10.54 0 8.3-3.78 11.67-9.45 11.67-3 0-4-1.35-4-4.25V108zm0-22.27h-1.15l-10.33.74v1.13c2.37.41 3.85 1.62 3.85 3.78V128a63.77 63.77 0 0 0 12.42 1c12.42 0 17.14-6.48 17.14-14.31 0-7.43-5.26-13.16-12.15-13.16-3.65 0-6.76 1.48-9.79 4.66V85.72zm33.14 25.7c.2-4.86 2.29-8.1 5.4-8.1s5.4 3.37 5.67 8.1h-11.07zm19.3 1.56c-.94-7-6.14-11.48-13.36-11.48a13.78 13.78 0 0 0-14.17 13.9c0 7.76 5.94 13.57 13.91 13.57a14.43 14.43 0 0 0 13.63-8.84H282c-2.43 3.71-5.4 5.54-9.12 5.54-4.72 0-9.45-4.32-9-12.69h19.3zm24.43-1.63c-2.23-2.16-4-3.3-5.74-3.3-2.29 0-3.71.94-5.66 3.64v10.4c0 3 .6 4 4.32 4.73V128h-16.2v-1.15c3.38-.82 4.25-1.83 4.25-4.73v-13.46c0-3.24-1.41-4.73-4.65-5v-1.15l11.13-1h1.15v8.1h.13c2.5-5.54 5.27-8.1 8.44-8.1a5.94 5.94 0 0 1 4.52 2.16zm42.99-8.84v1.15c3.24.67 4 2.7 1.69 8.1l-3.51 8.17-5.4-11.13c-1.56-3.24-1.56-4.73 1.35-5.13v-1.15h-22.55v-9.86h-1.29c-3.58 4.59-7.77 8.64-10.94 10.6v1.28h4.59v16.33c0 5.8 3.85 8.1 8.64 8.1 3.78 0 6.28-1.35 8.17-4.53l-.81-.74a4.76 4.76 0 0 1-3.71 2c-3.58 0-4.66-2.43-4.66-6.55v-14.61H329c3.71 0 4.8 1.35 6.41 4.79l9.33 19.66c-3.11 8.37-5.81 11.74-10.53 11.74a9.4 9.4 0 0 1-3.45-.6l-1.55 7.69a13.11 13.11 0 0 0 2.16.14c5.27 0 8.17-2.23 10.87-8.44l12.82-29.3c2.09-4.72 2.9-5.67 6.14-6.55v-1.15h-10.6z" transform="translate(-38.48 -40.02)"/><path class="cls-1" d="M286.66 102.28H132.1v-1.75h154.56v1.75zm53.82 0h-32.2v-1.75h32.2v1.75z"/><path class="cls-1" d="M191.83 164.2h-.67a10.88 10.88 0 0 0-3-5.72 7.47 7.47 0 0 0-5.29-2 6.27 6.27 0 0 0-5.41 2.87 13.24 13.24 0 0 0-2 7.72q0 5.4 2.34 8.35a7.78 7.78 0 0 0 6.46 3 9.05 9.05 0 0 0 4.07-.92 13.6 13.6 0 0 0 3.77-3v1.28a11.58 11.58 0 0 1-9.88 5 12.37 12.37 0 0 1-9.1-3.47 12.13 12.13 0 0 1-3.5-9 12.91 12.91 0 0 1 13.17-13.18 15.83 15.83 0 0 1 5.19 1 6.27 6.27 0 0 0 1.69.45 1.79 1.79 0 0 0 1.51-1.26h.67v8.94zM207 179.61v.67h-9.08v-.67a3.48 3.48 0 0 0 1.84-.71 2.48 2.48 0 0 0 .47-1.75v-11.94h-1.43a4.36 4.36 0 0 0-2.54.64 4.3 4.3 0 0 0-1.77 2H194v-4.52h.76a3.79 3.79 0 0 0 1.82.34h11.91a3.68 3.68 0 0 0 1.82-.34h.69v4.52h-.54a3.8 3.8 0 0 0-1.45-2 6 6 0 0 0-3-.64h-1.3v12a2.48 2.48 0 0 0 .48 1.72 3.1 3.1 0 0 0 1.81.68zm12.62-15.87v3.05a8.12 8.12 0 0 1 6.33-3.05 6.83 6.83 0 0 1 5.31 2.37 9.43 9.43 0 0 1-.21 12.17 7.85 7.85 0 0 1-5.94 2.44 6.77 6.77 0 0 1-2.66-.48 13.45 13.45 0 0 1-2.84-1.82v8.94a3.53 3.53 0 0 0 .57 2.31 3.07 3.07 0 0 0 2 1v.92H213v-1a2.26 2.26 0 0 0 1.88-1 5.47 5.47 0 0 0 .56-3v-18.13a3.74 3.74 0 0 0-.56-2.42 4.33 4.33 0 0 0-2.27-1v-.71l6.26-.63h.71zm0 4.17v9.39a5.45 5.45 0 0 0 3.87 1.83 4 4 0 0 0 3.39-1.81 8.06 8.06 0 0 0 1.29-4.79 8.57 8.57 0 0 0-1.23-4.9 3.84 3.84 0 0 0-3.33-1.8 5.06 5.06 0 0 0-3.99 2.08zM240 180.84a4.87 4.87 0 0 1-3.33-1.21 3.76 3.76 0 0 1-1.37-2.92 3.54 3.54 0 0 1 1.36-2.84q1.37-1.13 5.7-2.27 2.09-.55 3-.9a4.45 4.45 0 0 0-.94-3.16 4 4 0 0 0-3-1 5.09 5.09 0 0 0-4.72 2.63h-.61a6.81 6.81 0 0 1 2.47-3.94 7.35 7.35 0 0 1 4.57-1.4 7.7 7.7 0 0 1 5 1.55 5.3 5.3 0 0 1 1.88 4.34v7.41q0 2.1 1 2.1t1.24-1.47h.75a3.07 3.07 0 0 1-1.12 2.26 4.23 4.23 0 0 1-2.71.79 4.58 4.58 0 0 1-2.33-.52 3.91 3.91 0 0 1-1.48-1.7l-.36.41a7.26 7.26 0 0 1-5 1.84zm5.34-3.34v-6a15.24 15.24 0 0 0-4.12 2.28 3.24 3.24 0 0 0-1 2.46 3.31 3.31 0 0 0 .6 2.07 1.89 1.89 0 0 0 1.58.78 4.51 4.51 0 0 0 2.92-1.59zm22.96-10.18l-3 3.62 4.83 6.74a6.87 6.87 0 0 0 1.45 1.49 4.33 4.33 0 0 0 1.39.49v.63h-8.81v-.63q1.58 0 1.58-1a2.25 2.25 0 0 0-.54-1.29l-2.28-3.45-2.27 2.63a3.25 3.25 0 0 0-1 2 1.24 1.24 0 0 0 1.23 1.18v.63h-7.07v-.63q2.23-.15 4.48-2.86l3.39-4.07-4.68-6.33a5.91 5.91 0 0 0-1.44-1.43 4 4 0 0 0-1.68-.54v-.61h8.62v.61a1.07 1.07 0 0 0-1.23 1 2 2 0 0 0 .47 1.13l2.48 3.23 2.47-3a2.08 2.08 0 0 0 .54-1.21q0-.86-1.37-1.11v-.61h6.76v.61q-1.98-.04-4.32 2.78z" transform="translate(-38.48 -40.02)"/><path class="cls-1" d="M290.83 171.95a8.2 8.2 0 0 1-2.52 6.18 10.6 10.6 0 0 1-13.48 0 8.89 8.89 0 0 1 0-12.37 10.54 10.54 0 0 1 13.47 0 8.24 8.24 0 0 1 2.53 6.19zm-4.25.11a9.81 9.81 0 0 0-1.28-5.54 4.17 4.17 0 0 0-3.74-2 4.13 4.13 0 0 0-3.71 2 9.9 9.9 0 0 0-1.27 5.56 8.93 8.93 0 0 0 1.29 5.21 4.14 4.14 0 0 0 3.69 2 4.21 4.21 0 0 0 3.69-2 8.75 8.75 0 0 0 1.33-5.23zm16.64 8.22h-11.35v-.73a3.19 3.19 0 0 0 1.78-.75 2.37 2.37 0 0 0 .41-1.55v-10.49a2.24 2.24 0 0 0-.46-1.59 3 3 0 0 0-1.74-.65v-.62h10a8.3 8.3 0 0 1 4.44 1 3.17 3.17 0 0 1 1.6 2.84q0 2.84-3.9 3.86l-.4.05c3.32.57 5.38 2 5.38 4.32a3.72 3.72 0 0 1-1.58 3.12 6.85 6.85 0 0 1-4.18 1.19zm-4.9-15v5.86h1.42a3.75 3.75 0 0 0 2.64-.87 2.62 2.62 0 0 0 1-2.19c0-2.18-1.29-2.79-3.87-2.79h-1.14zm2.08 7.21h-2.08v4.54a1.86 1.86 0 0 0 .59 1.55 3.24 3.24 0 0 0 2 .46 3.56 3.56 0 0 0 2.6-.92 3.4 3.4 0 0 0 .95-2.55 2.4 2.4 0 0 0-1.06-2.1 4.21 4.21 0 0 0-3-.96zm15.22 8.35a4.86 4.86 0 0 1-3.33-1.21 3.76 3.76 0 0 1-1.37-2.92 3.54 3.54 0 0 1 1.37-2.84q1.36-1.13 5.7-2.27 2.1-.55 3-.9a4.46 4.46 0 0 0-.94-3.16 4 4 0 0 0-3-1 5.09 5.09 0 0 0-4.72 2.63h-.61a6.8 6.8 0 0 1 2.47-3.94 7.36 7.36 0 0 1 4.57-1.4 7.7 7.7 0 0 1 5 1.55 5.3 5.3 0 0 1 1.88 4.34v7.41q0 2.1 1 2.1t1.24-1.47h.67a3.07 3.07 0 0 1-1.12 2.26 4.24 4.24 0 0 1-2.71.79 4.59 4.59 0 0 1-2.33-.52 3.94 3.94 0 0 1-1.48-1.7l-.37.35a7.26 7.26 0 0 1-4.92 1.9zm5.38-3.34v-6a15.27 15.27 0 0 0-4.12 2.28 3.25 3.25 0 0 0-1 2.46 3.3 3.3 0 0 0 .6 2.07 1.89 1.89 0 0 0 1.58.78 4.51 4.51 0 0 0 2.94-1.59zm22-.5v-4.57h-7v4.92a2.27 2.27 0 0 0 .38 1.51 3.41 3.41 0 0 0 1.63.73v.65h-8.09v-.65a5.07 5.07 0 0 0 1.3-.47 1.39 1.39 0 0 0 .6-.65A4.18 4.18 0 0 0 332 177v-10.2a2.21 2.21 0 0 0-.4-1.51 3.42 3.42 0 0 0-1.67-.73v-.72H338v.72a3.14 3.14 0 0 0-1.6.71 2 2 0 0 0-.41 1.4v4.34h7v-4.22a2.23 2.23 0 0 0-.4-1.51 3.37 3.37 0 0 0-1.65-.73v-.72h8.21v.72a3.64 3.64 0 0 0-1.7.75 2.93 2.93 0 0 0-.38 1.83v10.2a2.21 2.21 0 0 0 .4 1.5 3.47 3.47 0 0 0 1.68.74v.65H341v-.65a3.19 3.19 0 0 0 1.63-.73A2.86 2.86 0 0 0 343 177zm44.57-1.64h.71a8.6 8.6 0 0 1-3.32 4 9.15 9.15 0 0 1-5.09 1.47 8.44 8.44 0 0 1-6.14-2.39 8 8 0 0 1-2.45-6 8.24 8.24 0 0 1 2.51-6.13 8.57 8.57 0 0 1 6.24-2.46 8.25 8.25 0 0 1 5.59 1.92 7.92 7.92 0 0 1 2.66 5.16h-11.91v.65a8 8 0 0 0 1.61 5.19 4.92 4.92 0 0 0 4 2q3.35.01 5.59-3.41zM376.35 170h6.86a7 7 0 0 0-1.12-3.62 2.88 2.88 0 0 0-2.41-1.39 2.7 2.7 0 0 0-2.33 1.36 7.14 7.14 0 0 0-1 3.65zm-7.35-4.63a3.64 3.64 0 0 1 1.7-.75v-.72h-8.21v.72a3.37 3.37 0 0 1 1.65.73 2.23 2.23 0 0 1 .4 1.51v.59l-7 7.88v-8.58a2 2 0 0 1 .41-1.4 3.14 3.14 0 0 1 1.6-.71v-.72h-8.09v.72a3.42 3.42 0 0 1 1.67.73 2.21 2.21 0 0 1 .4 1.51V177a4.18 4.18 0 0 1-.17 1.47 1.39 1.39 0 0 1-.6.65 5.07 5.07 0 0 1-1.3.47v.65h8.09v-.65a3.41 3.41 0 0 1-1.63-.73 2 2 0 0 1-.37-1.2l7-7.86v7.2a2.86 2.86 0 0 1-.43 1.86 3.19 3.19 0 0 1-1.62.73v.65h8.21v-.65a3.47 3.47 0 0 1-1.68-.74 2.21 2.21 0 0 1-.4-1.5V167.2a2.93 2.93 0 0 1 .37-1.83z" transform="translate(-38.48 -40.02)"/><path class="cls-2" d="M158.19 107.34a1.29 1.29 0 0 0-1.35-.09l-15.37 5.7a56 56 0 0 0-4.12-8.19l5-13.57s.62-1.35 0-1.68-1.51.56-1.51.56l-9 7.41a38.91 38.91 0 0 0-12.41-9 41.58 41.58 0 0 0-5.54-2l-2.8-10.74a1.33 1.33 0 0 0-1-1.08 1.2 1.2 0 0 0-.91 1l-1.8 9.49a48.52 48.52 0 0 0-6.08-.39 43.44 43.44 0 0 0-18 3.63A38 38 0 0 0 77 92c-.33.23-.64.48-1 .72-1.86-4.8-3.33-8.72-3.61-9.9a17.68 17.68 0 0 0 3.74-6.67 11.47 11.47 0 0 0-.27-7.2c-.57-1.79-1.7-3.46-1.62-4.6a3 3 0 0 1 .89-1.84 2 2 0 0 0-1.9-1.82 11 11 0 0 0-2.25.17c-.19-.35-.57-.28-.29-1.5.43-1.86 4-2.73 6.9-3.85a8.5 8.5 0 0 0 5.87-8.35 6.75 6.75 0 0 0-3.81-6.43 8.77 8.77 0 0 1-3.48 3.62A6.38 6.38 0 0 1 72 45a4.75 4.75 0 0 0-2.45-5c-.53 1-2.53 2.31-5.54 2.22s-3.2-.81-7.43-.79c-6 0-11 3.64-11.62 9A12.12 12.12 0 0 0 47 58.29a19.46 19.46 0 0 0-2.82 2.77 2.28 2.28 0 0 0-3.07-.24 4 4 0 0 1 .12 2.56c-.25.87-2.44 5.14-2.69 8.58-.43 5.83 2.94 9.77 5.76 10.9a2.65 2.65 0 0 0-.3 2.75 2.13 2.13 0 0 0 2 1.06 2.84 2.84 0 0 0-.51 3c.51 1.25 1.94 3.07 3.2 3.07a22.48 22.48 0 0 0 .69 4.57 4.69 4.69 0 0 0-.81 2.93 3.16 3.16 0 0 0 2.32 3.08 8.08 8.08 0 0 0 1 2.08 7.72 7.72 0 0 0 1.77 1.74 5.83 5.83 0 0 0 3.26 1.13 12.79 12.79 0 0 0 2.92-.12c0 .36.14 3.67.29 7.36a88.85 88.85 0 0 0-4.72 29.85c0 19.55 5.58 37 16.22 48.19a10.75 10.75 0 0 0 2.37 1.87 123 123 0 0 1 8.4-12.16 44.53 44.53 0 0 1 4.37-4.76q3.74-3.25 7.26-5.81a61 61 0 0 1 21.14-9.3c-8 4.14-12.59 6.36-20.14 12.83-4.78 4.1-12.4 11.33-17.6 21.25a8.38 8.38 0 0 0 4.26 1.92c1.1-1.29 6.76-11.68 15.46-20 17.59-16.47 38.3-20.28 49.15-20.07a102.69 102.69 0 0 0 .92-13.93 95.72 95.72 0 0 0-2.46-22.21l13-14.41s.81-.91.43-1.43z" transform="translate(-38.48 -40.02)"/><path class="cls-3" d="M61.88 100.84a9.73 9.73 0 0 0-4.45-1.38 8.63 8.63 0 0 0-4.43 1.25 1.56 1.56 0 0 1-.37-2 1.53 1.53 0 0 1 .88-1L53 89.49a23.07 23.07 0 0 1 2.93-1.83 1.25 1.25 0 0 0 .91-1.3 16.06 16.06 0 0 1 3.34 3.38 6.61 6.61 0 0 1 1.25 3.58 21.7 21.7 0 0 1-.19 4.51 2.29 2.29 0 0 1 1.06 1.5 2.5 2.5 0 0 1-.42 1.51zm74.82 25.56c-.09-1.6-1.95-5.93-3.08-6.86l19.49-8.65zM83.23 94.1l16.5 15a11.91 11.91 0 0 0-4.64 5.28zm9.66 29.65a5.7 5.7 0 0 0-1 2.47 6.58 6.58 0 0 0 .08 2.54l-5.06-3.49a37.29 37.29 0 0 0-.33-4.13c0-.11 0-.29-.07-.44z" transform="translate(-38.48 -40.02)"/><path class="cls-3" d="M65 125.2c-.31-.56-1.75-31-1.82-32.08l1.63-1.19v-.3c-1.19-.07-2.57-.51-3-1.2l-.43-9.33a7.25 7.25 0 0 1-3.93-1.27 2.56 2.56 0 0 1-.51-3.44 11.44 11.44 0 0 0 5.26 1.26c.44 0 1.36 1 1.88 1.19s1.6.79 2.08 1a3 3 0 0 1 .84 1.57c.12.38 15.21 39.54 15.46 40s1.13 7 1.19 7.52a46.34 46.34 0 0 0 2.76 6.27c-2-.06-5.29 1.09-8 3.72s-5 8.22-5.49 10.82c-.2-1.41-7.59-23.97-7.92-24.54zm19.19 37.47c-.65 6-2.12 11.23-4.32 15-1.42 2.4-5.4 7.27-6.79 9.11 1.51-3 2.67-10.26 2.57-15.9-.06-3.66-1.17-11.75-.2-17.1 1-5.75 2.67-9 6.52-12.52a12.11 12.11 0 0 1 11.71-2.55l4.64 8.72a10.54 10.54 0 0 0-7.95 1.57c-4.12 3.19-5.5 7.45-6.18 13.67z" transform="translate(-38.48 -40.02)"/><path class="cls-3" d="M84.64 174.53c1.13-2.54 2.61-9.78 3-12.2.54-3.1 1-7.64 4.74-10.69a7.76 7.76 0 0 1 6-1.35l5.26 10.71c.47 1.13 2 1.53 3 1.46-4.87 1.54-17.27 7.47-22 12.07zm44.64-34.12a3.3 3.3 0 0 0-.07 3.47l3.31 6.12a31.68 31.68 0 0 0 2.4 5h4.85c-1.83-4.11-6-12.05-6-12.05l-.3-6.41a15.88 15.88 0 0 0-4.19 3.87zm-22.37-34.01c2.07-.37 6.75.06 8.25.81l-4.75-26.91zM67 81.41a3 3 0 0 0-.82-1.56c-.47-.21-1.48-.77-2.08-1s-1.44-1.18-1.88-1.18a11.44 11.44 0 0 1-5.26-1.26 2.56 2.56 0 0 0 .51 3.44 7.3 7.3 0 0 0 3.93 1.27l.44 9.33c.43.69 1.81 1.13 3 1.19v.32l-1.64 1.17c.06 1.06 1.5 31.51 1.82 32.08s7.7 23.13 7.89 24.51c.52-2.6 2.85-8.26 5.49-10.83s6-3.78 8-3.72a46.26 46.26 0 0 1-2.76-6.27c-.06-.5-.94-7.08-1.19-7.52S67.1 81.79 67 81.41z" transform="translate(-38.48 -40.02)"/><path class="cls-3" d="M57.34 73.94a9.71 9.71 0 0 1 7.28 2.72 3.94 3.94 0 0 0-1.44-3.8 9.54 9.54 0 0 0-6.08-1.7 8.43 8.43 0 0 0-5.27 1.65c-1.15 1-1.34 2.08-1.09 3.71.37-1.19 3.09-2.59 6.6-2.58zM49.7 51.59a7 7 0 0 0 1.09 4.33c.43.57 1.44 1.67 2.19 1.63 1.07-.07 2.07-2.11 4.57-2 1.63.06 2.69 2.36 4.07 2.44 1.06.07 1.63-1 2.71-1.12a2 2 0 0 1 1.81.93 6 6 0 0 1 2.32-2.5c1.69-1.26 7.46-2.45 9.9-4.64a4.69 4.69 0 0 0 1.11-4.49 8.68 8.68 0 0 1-6 2.8 15.32 15.32 0 0 1-5.33-1.06 3.2 3.2 0 0 0 .27-3c-.82.63-4.34 1-5.72 1s-4.06-.56-6.15-.45C52 45.7 49.86 49 49.7 51.59z" transform="translate(-38.48 -40.02)"/><path class="cls-3" d="M57.6 65.81c9.9.19 14.4 4.76 14.5 8.52a7.11 7.11 0 0 0 .37-3.45c0-1-1.56-3.82-1.63-4.76a8 8 0 0 1 .38-2.44c-.62.12-2.82 1-3.76.25s-.31-2.82-1.63-3.32-3.38 1.06-4.7.88-2.44-2-3.82-2-2.07 1.69-3.76 2.07c-1.3.29-2.88-.49-3.66-.44a2.21 2.21 0 0 0-1.74 1.54 2.06 2.06 0 0 1-1.68 1.4c-.8.2-1.94-.5-2.51-.37a4.16 4.16 0 0 1 .26 3.26c-.5 1.31-1.58 2.7-1.7 4.34a6.43 6.43 0 0 0 .75 3.18C43 69.13 49 65.64 57.6 65.81zm-6.24 18.98a5.94 5.94 0 0 0-2.83 2.43 6.5 6.5 0 0 0 1.81 3 6 6 0 0 1 1.52-2.49 12.06 12.06 0 0 1 1.75-1 1 1 0 0 0 .69-1.07 2.84 2.84 0 0 0-.3-1.38c.5-.06 1.42 0 1.75-.43a2.7 2.7 0 0 0 .46-1.56c0-.57-.25-.69-.82-.75a23.77 23.77 0 0 0-3 0l1.61-.89a1.16 1.16 0 0 0 .57-.88 5.78 5.78 0 0 0-.13-1.88 14.23 14.23 0 0 0-6.08 2.5L49 82.1l-1.21-.1a5.17 5.17 0 0 0 .31 3 15.31 15.31 0 0 1 3.26-.21zM132.4 124c-.23-1.21-3.29-4.86-8.49-8.8-4.05-3.08-10-6.13-14.91-6.1-8.27.05-11.69 5.73-12.31 8.69a10 10 0 0 0 .09 4.8 5.35 5.35 0 0 0-2.07 3.41 3.5 3.5 0 0 0 .85 3.07 6.1 6.1 0 0 1 1.44-3.61c.76-1 2-1.44 3.14-2.13l.19 2.26c-1.07.62-2.39 1.93-2.48 2.62l.09 3.73 2.84-1.69.55 1.13-1 6.58 1.6-.29 2.91 1.2-2.84 2.37v.94a1.68 1.68 0 0 1 1.42-.54 16.72 16.72 0 0 1 3.56 1.19l-.1.57h-5a1.45 1.45 0 0 0 .77 1.45 10.64 10.64 0 0 1 1.71-.53c.37 0 1.24.22 2 .31l-.9 1.21a1.71 1.71 0 0 1-1.32.19 1 1 0 0 0-.93 1.1 12.47 12.47 0 0 0 .36 2c.46 2.12 2.62 1.69 2.9 1.67a43.72 43.72 0 0 0 5.85-1.74l-4.3 6 1.88 6.45a105.38 105.38 0 0 1 20.52-5.69c-1-1.67-1.17-2.33-2.4-4.82l-4.7-10.81.66-1.6c1 .38 2.63-.37 3.66-1.22a12.41 12.41 0 0 0 2.72-3.29 1.55 1.55 0 0 0-1.78.1c-.56.38-1 1.1-1.78.75s-.43-1.3-.34-2.15-1-.86-1.73-.2-2.35.38-3.39-.66a69.2 69.2 0 0 0-7.8-6.2 13.49 13.49 0 0 0-8.55-1.39c-1.48.26-2.54.91-3.1.64L100 122.1l.3-.19c.66.29 1.28.82 2.13.53a24.37 24.37 0 0 1 6-.94 29.67 29.67 0 0 1 10.34 2.17c.09 2.44 5 5.55 7.23 5.83a5.89 5.89 0 0 0 4.13-.94l-4.79-4.21 2.54-3.22s4 3.86 4.61 4.61a3.55 3.55 0 0 0-.09-1.74zm-28.85 4.89a16.58 16.58 0 0 1 4-1.6c2.86-.61 6 1.11 8.3 2.88l-.43.67-3.23.77a4.6 4.6 0 0 0-3.1-.75 6.31 6.31 0 0 0-2.07.48l.63 1-1.49.38a6.36 6.36 0 0 0-2.63-2.16v-1.69zm-4.89-7.43c-.84-2.83 1.41-5.64 2.44-6.67l1.6 3.66a23.37 23.37 0 0 0-4.04 3.06zm14.85-3.19c-1.51-1-6.48-.85-8.55-.37l-1.5-4.33a9.69 9.69 0 0 1 5.26-1.41 13.41 13.41 0 0 1 5.64 1.22zm9.77 4.43a47.34 47.34 0 0 0-7.33-3.68l1.78-4.6a67 67 0 0 1 7.9 5zm-.64-12.19c1.86.66 5.79 4 6.74 4.72l10-21.23zm13.77 15.8c-.09-1.6-1.95-5.92-3.08-6.86l19.5-8.65z" transform="translate(-38.48 -40.02)"/><path class="cls-2" d="M150.37 154.64a3.62 3.62 0 1 1 3.61 3.68 3.63 3.63 0 0 1-3.61-3.68zm6.79 0a3.18 3.18 0 1 0-3.18 3.29 3.24 3.24 0 0 0 3.18-3.29zm-4.16 2.19h-.39v-4.29h1.62a1.08 1.08 0 0 1 1.34 1.13 1 1 0 0 1-1.06 1.14l1.3 2h-.55l-1.23-2h-1v2zm.83-2.39c.66 0 1.31 0 1.31-.78a.83.83 0 0 0-1-.75H153v1.54h.83z" transform="translate(-38.48 -40.02)"/></svg>