<svg id="Слой_1" data-name="Слой 1" xmlns="http://www.w3.org/2000/svg" viewBox="0 0 508.07 455.5" fill="#dd6262"><defs><style>.cls-1{fill:none}.cls-2{clip-path:url(#clip-path)}</style><clipPath id="clip-path"><path class="cls-1" d="M0 0h508.08v455.5H0z"/></clipPath></defs><title>life</title><g class="cls-2"><path d="M467.27 40.9A138.8 138.8 0 0 0 368.48 0c-72.7 0-114.4 56.6-114.4 56.6S213.08.1 139.68.1A138.8 138.8 0 0 0 40.88 41c-54.5 54.5-54.5 143.1 0 197.5l213.2 217 213.2-216.9c54.4-54.6 54.4-143.2 0-197.7m-11.7 186l-201.5 205-201.5-205.1c-48-48-48-126.2 0-174.3a122.31 122.31 0 0 1 87.1-36.1c69.6 0 114.4 63.4 114.4 63.4s45.5-63.4 114.4-63.4a122.14 122.14 0 0 1 87.1 36.1 123.43 123.43 0 0 1 0 174.4"/><path d="M287.57 131.5h-65.7V189h-57.5v65.7h57.5v57.5h65.7v-57.5h57.5V189h-57.5v-57.5zm41.1 73.9v32.9h-57.5v57.5h-32.9v-57.5h-57.5v-32.9h57.5v-57.5h32.9v57.5h57.5zM49.28 140.7h16.4a75 75 0 0 1 74.9-74.9V49.4a91.39 91.39 0 0 0-91.3 91.3"/></g></svg>