<svg width="437" height="83" viewBox="0 0 437 83" xmlns="http://www.w3.org/2000/svg"><title>Logo</title><g fill="none"><path d="M264.908 78.09a1.73 1.73 0 0 1-1.808 1.268h-10.72V68.124h10.364v-3.248h-10.372v-9.534h10.533a1.724 1.724 0 0 1 1.807 1.268h1.103v-4.495h-18.44v1.094c.3.098.573.265.795.488.292.377.458.835.475 1.31v24.707a2.007 2.007 0 0 1-1.229 1.777h-.041v1.094h18.629V78.09h-1.096zm47.791 0a1.73 1.73 0 0 1-1.815 1.268H300.17V68.124h10.365v-3.248H300.17v-9.534h10.54a1.73 1.73 0 0 1 1.807 1.268h1.096v-4.495h-18.44v1.094c.297.098.567.266.788.488.294.375.46.834.475 1.31v24.707a2 2 0 0 1-1.229 1.777v1.094h18.63V78.09h-1.138zm-70.797-24.895v-1.1h-24.066v1.1a1.736 1.736 0 0 1 1.27 1.806v24.685a1.729 1.729 0 0 1-1.27 1.805v1.101h6.282v-1.101a1.722 1.722 0 0 1-1.27-1.805v-24.33h14.07v24.33a1.722 1.722 0 0 1-1.263 1.805v1.101h6.282v-1.101a1.715 1.715 0 0 1-1.27-1.805V55a1.722 1.722 0 0 1 1.235-1.806zM211.47 68.103H198.6V64.91h12.87zM87.963 77.888a1.877 1.877 0 0 1-1.731 1.442s-1.92.175-4.328.175a6.377 6.377 0 0 1-5.325-2.349c-1.229-1.561-1.724-3.882-1.724-6.97V64.48c0-6.217 2.275-9.318 7.05-9.318 2.093 0 4.243.209 4.243.209.825.07 1.519.646 1.738 1.443h1.138V52.63s-1.312-.279-3.002-.495a31.455 31.455 0 0 0-4.152-.32c-3.374 0-6.026 1.073-7.957 3.22-1.932 2.146-2.9 5.303-2.904 9.47v5.709c0 4.14.975 7.287 2.924 9.443 1.948 2.14 4.593 3.227 7.943 3.227a33.462 33.462 0 0 0 4.53-.23 50.406 50.406 0 0 0 2.702-.46v-4.293l-1.145-.014zM392.03 52.094h-6.84v1.08c.908.363 1.348.941.81 2.356-.537 1.415-5.367 14.301-5.367 14.301a1.577 1.577 0 0 1-1.145-.794c-.433-.871-5.388-13.2-5.71-13.988a1.28 1.28 0 0 1 .873-1.874v-1.08h-7.05v1.1c.972.145 1.78.82 2.095 1.75.335.78 5.786 14.308 6.198 15.332a4.116 4.116 0 0 0 3.357 3.018s-.76 2.09-1.43 3.75a3.531 3.531 0 0 1-3.38 2.474 1.794 1.794 0 0 1-1.702-1.255h-1.194V82.3s.775.586 3.1.586a6.079 6.079 0 0 0 4.02-1.192 8.287 8.287 0 0 0 2.582-3.617c.747-1.742 8.3-22.079 8.704-23.075a2.449 2.449 0 0 1 2.08-1.806v-1.1zM119.253 35.689c-.09-.265-6.98-24.54-6.98-24.54a4.355 4.355 0 0 0-4.203-3.133 4.354 4.354 0 0 0-4.172 3.175s-6.415 22.797-6.98 24.505a2.79 2.79 0 0 1-2.094 2.042v1.108h7.078v-1.108a1.693 1.693 0 0 1-1.075-2.015c.698-2.83 1.891-6.927 1.891-6.927h10.637s1.717 6.182 1.906 6.927a1.695 1.695 0 0 1-1.075 2.015v1.108h7.077v-1.108a2.79 2.79 0 0 1-2.01-2.05zM103.55 25.534s3.734-13.395 3.86-13.743a.698.698 0 0 1 1.396.056c.118.39 3.81 13.68 3.81 13.68l-9.066.007zm12.716 53.908c-.084-.265-6.98-24.546-6.98-24.546a4.355 4.355 0 0 0-4.2-3.137 4.354 4.354 0 0 0-4.176 3.172s-6.414 22.796-6.98 24.504a2.79 2.79 0 0 1-2.093 2.042v1.108h7.077v-1.108a1.693 1.693 0 0 1-1.075-2.014c.698-2.837 1.892-6.935 1.892-6.935h10.637s1.717 6.182 1.899 6.935c.216.848-.25 1.72-1.075 2.014v1.108h7.077v-1.108a2.79 2.79 0 0 1-2.003-2.035zm-15.705-10.154s3.735-13.395 3.867-13.737a.698.698 0 0 1 1.396.056c.112.39 3.811 13.688 3.811 13.688l-9.074-.007zm46.821-58.041a1.722 1.722 0 0 1 1.27-1.805V8.341h-6.282v1.101a1.729 1.729 0 0 1 1.27 1.805v9.89h-14.05v-9.89a1.722 1.722 0 0 1 1.27-1.805V8.341h-6.281v1.101a1.72 1.72 0 0 1 1.27 1.805v24.685a1.729 1.729 0 0 1-1.27 1.806v1.1h6.282v-1.1a1.729 1.729 0 0 1-1.27-1.806v-11.54h14.07v11.547a1.729 1.729 0 0 1-1.27 1.805v1.102h6.282v-1.102a1.729 1.729 0 0 1-1.27-1.805l-.021-24.692zM144.31 55a1.722 1.722 0 0 1 1.271-1.805v-1.1H139.3v1.1c.805.217 1.34.976 1.27 1.806v9.882h-14.057v-9.882a1.729 1.729 0 0 1 1.27-1.806v-1.1h-6.281v1.1a1.722 1.722 0 0 1 1.263 1.806v24.685a1.722 1.722 0 0 1-1.263 1.805v1.101h6.282v-1.101a1.729 1.729 0 0 1-1.27-1.805V68.145h14.07v11.54a1.72 1.72 0 0 1-1.27 1.806v1.101h6.282v-1.101a1.722 1.722 0 0 1-1.27-1.805L144.31 55zm31.263-19.074L164.755 21.08l8.738-9.84a4.656 4.656 0 0 1 2.792-1.806v-1.1h-4.816l-12.187 14.183v-11.27a1.715 1.715 0 0 1 1.264-1.805V8.341h-6.282v1.101a1.722 1.722 0 0 1 1.263 1.805v24.685a1.722 1.722 0 0 1-1.263 1.806v1.1h6.282v-1.1a1.722 1.722 0 0 1-1.264-1.806v-8.67l2.988-3.366 10.805 14.936h5.507V37.73a5.104 5.104 0 0 1-3.009-1.805zm-3.071 43.753l-10.805-14.845 8.732-9.84a4.642 4.642 0 0 1 2.792-1.805v-1.095h-4.816L156.211 66.27V55a1.722 1.722 0 0 1 1.264-1.805v-1.1h-6.282v1.1a1.722 1.722 0 0 1 1.263 1.806v24.685a1.722 1.722 0 0 1-1.228 1.805v1.101h6.282v-1.101a1.722 1.722 0 0 1-1.264-1.805v-8.67l2.98-3.366 10.805 14.935h5.507v-1.101a5.118 5.118 0 0 1-3.036-1.805zM80.585 20.983c-1.242 0-2.694.05-4.32.16v-9.575h10.609a1.73 1.73 0 0 1 1.808 1.268h1.124V8.341H71.267v1.101c.8.208 1.334.962 1.264 1.784v24.706c.069.83-.466 1.59-1.27 1.806v1.1h9.52c7.747 0 11.802-2.99 11.802-8.732v-.376c.01-5.836-3.99-8.751-11.998-8.747zM88.85 30.1c0 1.924-.62 3.318-1.863 4.182-1.243.892-3.134 1.338-6.4 1.338-1.097 0-2.472 0-4.321-.126v-11.22c1.814-.105 3.26-.167 4.32-.167 3.02 0 5.154.443 6.4 1.33 1.248.888 1.869 2.282 1.864 4.182v.481zm264.485 34.637c-1.242 0-2.687.055-4.314.153v-9.569h10.61a1.73 1.73 0 0 1 1.807 1.269h1.096v-4.496h-18.517v1.101a1.7 1.7 0 0 1 1.27 1.785v24.706a1.72 1.72 0 0 1-1.27 1.805v1.101h9.52c7.748 0 11.796-2.99 11.796-8.74v-.376c.005-5.83-3.995-8.744-11.998-8.74zm8.264 9.116c0 1.93-.614 3.33-1.864 4.216-1.249.885-3.134 1.338-6.4 1.338-1.096 0-2.47 0-4.314-.125V68.06c1.822-.105 3.253-.167 4.314-.167 3.022 0 5.158.446 6.4 1.338 1.243.892 1.864 2.293 1.864 4.181v.44zm-185.76-21.759v4.496h1.102a1.73 1.73 0 0 1 1.808-1.269h5.912v24.393a1.722 1.722 0 0 1-1.263 1.805v1.1h6.282v-1.128a1.722 1.722 0 0 1-1.264-1.805V55.293h5.905a1.73 1.73 0 0 1 1.808 1.269h1.096v-4.496l-21.386.028zm94.081 0v4.496h1.095a1.738 1.738 0 0 1 1.815-1.269h5.912v24.393a1.729 1.729 0 0 1-1.27 1.805v1.1h6.281v-1.128a1.715 1.715 0 0 1-1.263-1.805V55.293h5.898a1.724 1.724 0 0 1 1.808 1.269h1.102v-4.496l-21.379.028zm58.26-.285c-1.124 0-2.597.07-4.419.125-2.317.07-4.648.16-4.648.16v1.095c.801.22 1.334.977 1.27 1.805v24.692a1.72 1.72 0 0 1-1.27 1.805v1.101h6.282v-1.101a1.722 1.722 0 0 1-1.264-1.805v-9.458c1.766.14 3.092.224 4.07.224 7.668 0 11.502-3.067 11.502-9.2v-.537c-.014-5.933-3.855-8.902-11.523-8.906zm7.768 9.443c0 2.188-.607 3.756-1.822 4.683-1.214.927-3.19 1.394-5.946 1.394-.224 0-1.557-.07-4.07-.181V55.14a54.284 54.284 0 0 1 4.07-.167c2.729 0 4.711.446 5.933 1.352 1.221.906 1.835 2.355 1.835 4.376v.551zm68.004-9.443c-1.123 0-2.596.07-4.418.125-2.317.07-4.648.16-4.648.16v1.095a1.729 1.729 0 0 1 1.27 1.805v24.692a1.722 1.722 0 0 1-1.263 1.805v1.101h6.281v-1.101a1.729 1.729 0 0 1-1.263-1.805v-9.458c1.766.14 3.092.224 4.07.224 7.668 0 11.504-3.067 11.509-9.2v-.537c-.023-5.933-3.87-8.902-11.538-8.906zm7.769 9.443c0 2.188-.6 3.756-1.815 4.683-1.214.927-3.19 1.394-5.947 1.394-.223 0-1.556-.07-4.069-.181V55.14a54.284 54.284 0 0 1 4.07-.167c2.729 0 4.71.446 5.932 1.352 1.222.906 1.836 2.355 1.836 4.376l-.007.551zm7.636-9.158v1.101a1.722 1.722 0 0 1 1.263 1.806v24.685a1.722 1.722 0 0 1-1.263 1.805v1.101h6.282v-1.101a1.722 1.722 0 0 1-1.27-1.805V55.293h9.59a1.724 1.724 0 0 1 1.807 1.269h1.103v-4.496l-17.512.028z" fill="#231F20"/><path d="M45.848 31.407c-4.334 12.295-17.8 18.754-30.078 14.425-12.277-4.328-18.715-17.804-14.38-30.1C5.724 3.439 19.19-3.02 31.468 1.308c12.277 4.328 18.715 17.804 14.38 30.1zm1.38 31.946c0 4.537-10.54 8.245-23.578 8.287C10.612 71.682.024 68.05.017 63.528c-.007-4.524 10.54-8.252 23.585-8.3 13.045-.05 23.591 3.616 23.626 8.125zM23.622 82.937C10.582 82.937.01 82.03.01 80.91s10.572-2.028 23.612-2.028c13.041 0 23.613.908 23.613 2.028s-10.572 2.028-23.613 2.028z" fill="#DB151C"/></g></svg>