<svg xmlns="http://www.w3.org/2000/svg" viewBox="0 0 376.9 508" fill="#dd6262"><path d="M16.4 16.4h344.1v475.2h.1H16.4V16.4zM0 508h376.9V0H0v508z"/><path d="M49.2 292.8h278.6v16.4H49.2zm0 65.6h278.6v16.4H49.2zm0 65.5h278.6v16.4H49.2z"/><path class="st0" d="M51.3 218.4h27.4C80.8 234 94.2 246 110.4 246s29.6-12 31.8-27.6H235c2.2 15.6 15.6 27.6 31.8 27.6 16.2 0 29.6-12 31.8-27.6h28V176c0-24.3-19.7-44-44-44h-12.8c-10.9-40.8-47.5-69-90-69-42.6 0-79.1 28.2-90 69H74.2c-12.7 0-23 10.3-23 23v63.4zM160.4 74.5V132H99.3c8.8-29.2 32.1-50.8 61.1-57.5m99.8 57.5h-90.6V72.9c3.4-.4 6.7-.7 10.2-.7 37.5 0 69.7 24.3 80.4 59.8m57 40.4h-9c-2.5 0-4.6-2.1-4.6-4.6 0-2.5 2.1-4.6 4.6-4.6h6.7c1.2 2.9 2 6 2.3 9.2m-73.4 41.5c0-12.7 10.3-23 23-23s23 10.3 23 23-10.3 23-23 23c-12.7-.1-23-10.4-23-23m-156.4 0c0-12.7 10.3-23 23-23s23 10.3 23 23-10.3 23-23 23-23-10.4-23-23m-26.9-4.7V155c0-7.6 6.2-13.8 13.8-13.8h208.3c10.8 0 20.5 5 26.9 12.8h-1.4c-7.6 0-13.9 6.1-13.9 13.8 0 7.6 6.2 13.8 13.8 13.8h9.2v27.6h-18.8c-2.2-15.6-15.6-27.6-31.8-27.6-16.2 0-29.6 12-31.8 27.6h-92.7c-2.2-15.6-15.6-27.6-31.8-27.6-16.2 0-29.6 12-31.8 27.6h-18z"/><path class="st1" d="M51.3 218.4h27.4C80.8 234 94.2 246 110.4 246s29.6-12 31.8-27.6H235c2.2 15.6 15.6 27.6 31.8 27.6 16.2 0 29.6-12 31.8-27.6h28V176c0-24.3-19.7-44-44-44h-12.8c-10.9-40.8-47.5-69-90-69-42.6 0-79.1 28.2-90 69H74.2c-12.7 0-23 10.3-23 23v63.4zM160.4 74.5V132H99.3c8.8-29.2 32.1-50.8 61.1-57.5zm99.8 57.5h-90.6V72.9c3.4-.4 6.7-.7 10.2-.7 37.5 0 69.7 24.3 80.4 59.8zm57 40.4h-9c-2.5 0-4.6-2.1-4.6-4.6 0-2.5 2.1-4.6 4.6-4.6h6.7c1.2 2.9 2 6 2.3 9.2zm-73.4 41.5c0-12.7 10.3-23 23-23s23 10.3 23 23-10.3 23-23 23c-12.7-.1-23-10.4-23-23zm-156.4 0c0-12.7 10.3-23 23-23s23 10.3 23 23-10.3 23-23 23-23-10.4-23-23zm-26.9-4.7V155c0-7.6 6.2-13.8 13.8-13.8h208.3c10.8 0 20.5 5 26.9 12.8h-1.4c-7.6 0-13.9 6.1-13.9 13.8 0 7.6 6.2 13.8 13.8 13.8h9.2v27.6h-18.8c-2.2-15.6-15.6-27.6-31.8-27.6-16.2 0-29.6 12-31.8 27.6h-92.7c-2.2-15.6-15.6-27.6-31.8-27.6-16.2 0-29.6 12-31.8 27.6h-18z"/><path class="st0" d="M179.8 154h18.1v9.2h-18.1z"/><path class="st1" d="M179.8 154h18.1v9.2h-18.1z"/></svg>