<svg xmlns="http://www.w3.org/2000/svg" viewBox="0 0 505.3 508" fill="#dd6262"><path d="M122.2 361.3H220v130.4h-97.8V361.3zm195.6-208L464.5 212v279.7H317.8V153.3zM40.7 98.5l260.8-76.7v469.9h-65.2V345H105.9v146.7H40.7V98.5zM317.8 0L24.4 86.3v405.4H0V508h505.3v-16.3h-24.5V201l-163-65.2V0z"/><path d="M342.2 247.2h16.3v16.3h-16.3zm0 48.9h16.3v16.3h-16.3zm0 48.9h16.3v16.3h-16.3zm0 48.9h16.3v16.3h-16.3zm0 48.9h16.3v16.3h-16.3zm81.5-195.6H440v16.3h-16.3zm0 48.9H440v16.3h-16.3zm0 48.9H440v16.3h-16.3zm0 48.9H440v16.3h-16.3zm0 48.9H440v16.3h-16.3zM383 247.2h16.3v16.3H383zm0 48.9h16.3v16.3H383zm0 48.9h16.3v16.3H383zm0 48.9h16.3v16.3H383zm0 48.9h16.3v16.3H383zM73.3 198.3h81.5v-81.5H73.3v81.5zm16.3-65.2h48.9V182H89.6v-48.9zm97.8 65.2h81.5v-81.5h-81.5v81.5zm16.3-65.2h48.9V182h-48.9v-48.9zM73.3 312.4h81.5v-81.5H73.3v81.5zm16.3-65.2h48.9v48.9H89.6v-48.9zm97.8 65.2h81.5v-81.5h-81.5v81.5zm16.3-65.2h48.9v48.9h-48.9v-48.9z"/></svg>