<svg viewBox="0 0 90 32" xmlns="http://www.w3.org/2000/svg"><g fill="none" fill-rule="evenodd"><path d="M3.087 16.368v-4.837c.38.054.723.09 1.103.09 2.496 0 4.648-1.348 4.648-3.973 0-2.662-2.206-3.776-4.612-3.776-1.14 0-2.297.09-3.4.341v12.155h2.26zm3.4-8.792c0 1.402-1.013 2.14-2.351 2.14-.344 0-.688-.019-1.05-.073v-3.74a5.735 5.735 0 0 1 1.104-.107c1.32 0 2.297.413 2.297 1.78zm11.424 3.901c0-2.499-1.5-4.297-4.105-4.297-2.767 0-4.196 2.104-4.196 4.71 0 2.788 1.845 4.676 4.63 4.676 1.067 0 2.134-.252 3.11-.665l-.686-1.673c-.652.288-1.556.468-2.297.468-1.339 0-2.28-.648-2.424-2.032h5.842a6.61 6.61 0 0 0 .126-1.187zm-2.242-.503h-3.726c.054-1.079.723-2.014 1.881-2.014 1.212 0 1.827.881 1.845 2.014zM27.39 7.378h-2.17v3.452h-3.49V7.378h-2.171v8.99h2.17v-3.776h3.49v3.776h2.171v-8.99zm9.967 4.1c0-2.5-1.501-4.298-4.105-4.298-2.767 0-4.196 2.104-4.196 4.71 0 2.788 1.844 4.676 4.63 4.676 1.067 0 2.134-.252 3.11-.665l-.687-1.673c-.651.288-1.555.468-2.297.468-1.338 0-2.279-.648-2.423-2.032h5.841a6.61 6.61 0 0 0 .127-1.187zm-2.243-.504H31.39c.054-1.079.723-2.014 1.88-2.014 1.212 0 1.827.881 1.845 2.014zm8.293 5.592c.958 0 1.899-.234 2.785-.63l-.633-1.69c-.633.234-1.339.45-2.026.45-1.682 0-2.73-1.277-2.73-2.877 0-1.492.94-2.77 2.531-2.77.742 0 1.52.235 2.207.505l.65-1.745a7.79 7.79 0 0 0-2.983-.629c-2.804 0-4.72 1.906-4.72 4.693 0 2.84 2.133 4.693 4.919 4.693zm8.35 0c.958 0 1.899-.234 2.785-.63l-.633-1.69c-.633.234-1.338.45-2.026.45-1.682 0-2.73-1.277-2.73-2.877 0-1.492.94-2.77 2.531-2.77.742 0 1.52.235 2.207.505l.651-1.745a7.792 7.792 0 0 0-2.984-.629c-2.804 0-4.72 1.906-4.72 4.693 0 2.84 2.133 4.693 4.919 4.693zm11.471-.701s-.126-.755-.126-1.133V10.11c0-2.086-1.447-2.93-3.382-2.93a9.002 9.002 0 0 0-3.563.772l.741 1.637c.76-.324 1.7-.54 2.514-.54.543 0 1.52.072 1.52.827 0 1.564-5.607.324-5.607 3.956 0 2.103 2.315 2.733 4.051 2.733 1.32 0 2.604-.324 3.852-.701zm-2.26-1.349a5.238 5.238 0 0 1-1.574.252c-.778 0-1.682-.162-1.682-1.097 0-1.295 2.478-1.007 3.22-1.708v2.212c0 .197.036.341.036.341zm12.086-7.138h-2.17v3.452h-3.49V7.378h-2.171v8.99h2.17v-3.776h3.49v3.776h2.171v-8.99zm6.554 9.188c.959 0 1.9-.234 2.785-.63l-.632-1.69c-.633.234-1.339.45-2.026.45-1.682 0-2.731-1.277-2.731-2.877 0-1.492.94-2.77 2.532-2.77.741 0 1.52.235 2.206.505l.651-1.745a7.79 7.79 0 0 0-2.984-.629c-2.803 0-4.72 1.906-4.72 4.693 0 2.84 2.134 4.693 4.92 4.693z" fill="#5E1974"/><path d="M89.705 4.25c0-1.996-1.627-3.597-3.617-3.597a3.594 3.594 0 0 0-3.617 3.596c0 1.96 1.61 3.578 3.617 3.578 1.99 0 3.617-1.618 3.617-3.578m-.65 0c0 1.619-1.34 2.931-2.967 2.931-.217 0-.434-.018-.633-.054V5.454s.344.054.579.054c1.103 0 2.044-.611 2.044-1.798 0-1.169-.977-1.708-2.026-1.708-.506 0-.959.036-1.429.161v4.64a2.909 2.909 0 0 1-1.5-2.554 2.952 2.952 0 0 1 2.965-2.966 2.963 2.963 0 0 1 2.966 2.966m-3.056.54c-.2 0-.398-.018-.543-.018V2.757c.145-.018.38-.054.579-.054.705 0 1.194.252 1.194 1.007 0 .755-.507 1.079-1.23 1.079M4.895 28.115l-.313-.84c-.35.133-.82.289-1.35.289-1.098 0-2.026-.851-2.026-2.218 0-1.115.59-2.182 1.893-2.182.567 0 1.133.192 1.47.324l.326-.875a4.957 4.957 0 0 0-1.869-.383C1.194 22.23 0 23.512 0 25.37c0 1.942 1.435 3.117 3.171 3.117a4.2 4.2 0 0 0 1.724-.372zm5.598-4.843v-.91H5.526v.91h1.94v5.083h1.086v-5.083h1.941zm6.124 2.074c0-1.786-1.121-3.116-3.063-3.116-.687 0-1.603.215-2.182.431 0 0 .073.503.073.755v7.636h1.085v-2.77c.373.133.735.205 1.109.205 1.736 0 2.978-1.33 2.978-3.14zm-1.206 0c0 1.319-.59 2.206-1.953 2.206-.301 0-.651-.06-.928-.192v-3.716c0-.096-.036-.24-.036-.276a2.88 2.88 0 0 1 1.06-.204c1.339 0 1.857 1.031 1.857 2.182zm6.902 2.697s-.085-.515-.085-.767v-3.129c0-1.258-.771-1.917-2.206-1.917-.639 0-1.447.203-2.038.479l.374.84c.253-.109.977-.385 1.592-.385.518 0 1.181.12 1.181.816 0 .587-.796.683-1.664.863-.988.203-2.074.563-2.074 1.882 0 1.174 1.05 1.762 2.52 1.762.832 0 1.688-.216 2.4-.444zm-1.146-.695a3.92 3.92 0 0 1-1.254.204c-.807 0-1.314-.288-1.314-.911 0-.672.64-.863 1.339-1.02.445-.095.916-.179 1.193-.395v1.882c0 .084.036.24.036.24zm7.722 1.007l-2.183-2.997 2.062-2.997H27.49l-1.447 2.17-1.52-2.17h-1.325l2.11 2.877-2.23 3.117h1.29l1.59-2.302 1.58 2.302h1.35zm6.121-2.997c0-1.822-1.181-3.128-2.93-3.128-1.748 0-2.917 1.306-2.917 3.128s1.169 3.129 2.917 3.129c1.749 0 2.93-1.307 2.93-3.129zm-1.206 0c0 1.199-.554 2.194-1.712 2.194-1.157 0-1.724-.995-1.724-2.194 0-1.199.567-2.194 1.724-2.194 1.158 0 1.712.995 1.712 2.194zm7.088 1.223c0-1.247-1.266-1.463-1.266-1.463s.856-.287.856-1.342c0-.456-.23-.923-.748-1.223-.374-.216-.916-.323-1.58-.323-.759 0-1.567.107-1.953.24v5.777c.53.156 1.387.24 2.038.24 1.41 0 2.653-.612 2.653-1.906zm-1.544-2.601c0 .587-.518.85-1.025.85h-1.036v-1.57c.265-.06.542-.096.807-.096.712 0 1.254.276 1.254.816zm.338 2.649c0 .515-.338.923-1.41.923-.338 0-.773-.036-.99-.084v-1.846h.977c1.073 0 1.423.467 1.423 1.007zm6.962 1.414s-.085-.515-.085-.767v-3.129c0-1.258-.771-1.917-2.206-1.917-.64 0-1.447.203-2.038.479l.374.84c.253-.109.977-.385 1.591-.385.519 0 1.182.12 1.182.816 0 .587-.796.683-1.664.863-.988.203-2.074.563-2.074 1.882 0 1.174 1.05 1.762 2.52 1.762.832 0 1.688-.216 2.4-.444zm-1.146-.695c-.386.132-.82.204-1.254.204-.808 0-1.314-.288-1.314-.911 0-.672.64-.863 1.338-1.02.447-.095.917-.179 1.194-.395v1.882c0 .084.036.24.036.24zm7.558 1.007V22.36h-1.098v2.374h-2.785V22.36h-1.085v5.994h1.085v-2.71h2.785v2.71h1.098zm6.798 0V22.36h-1.315l-2.556 4.22a1.87 1.87 0 0 0-.241.54h-.036v-4.76h-1.085v5.934s.265.132.53.132c.362 0 .808-.132 1.194-.767.518-.84 2.182-3.597 2.182-3.597.145-.24.205-.539.205-.539h.036v4.83h1.086zm6.448-3.285c0-1.594-.917-2.84-2.605-2.84-1.796 0-2.652 1.474-2.652 3.116 0 1.786 1.121 3.14 2.966 3.14.639 0 1.29-.131 1.869-.395l-.338-.815c-.446.18-.94.276-1.435.276-1.157 0-1.82-.755-1.88-1.822h4.014c.037-.228.06-.456.06-.66zm-1.146-.215h-2.93c.024-.935.543-1.703 1.483-1.703.989 0 1.435.816 1.447 1.703z" fill="#C1CD23"/></g></svg>