<svg xmlns="http://www.w3.org/2000/svg" width="282" height="32" viewBox="0 0 282 32"><path fill="#9E0918" d="M129.1 31.2H150v-9.7h-6.7v3h-7.6V6.7h7.6v3h6.7V0h-20.9v31.2zm-26.5 0h20.9V0h-20.9v31.2zm6.7-24.5h7.6v17.8h-7.6V6.7zM79.1 31.2h6.7V6.7h11.8V0H79.1v31.2zm-26.3 0h20.9v-9.7H67v3h-7.6V6.7H67v3h6.7V0H52.8v31.2zm102.5 0h20.9v-9.7h-6.7v3H162V6.7h7.6v3h6.7V0h-20.9v31.2zm51.3 0h6.7v-9.4h14.3V0h-20.9v31.2zm6.7-24.5h7.6v8.5h-7.6V6.7zM281.5 0h-7.1l-3.7 12.1h-1.8L265.3 0h-7.1l5.3 15.5-5.7 15.7h7.1l4.1-12.4h1.8l4.1 12.4h7.1l-5.7-15.7L281.5 0zM0 31.2h6.7v-9.4H21V0H0v31.2zM6.7 6.7h7.6v8.5H6.7V6.7zM234.9 0l-3 31.2h6.7l.7-7.4h7.3l.7 7.4h6.7L251 0h-16.1zm4.9 17.1l1-10.5h4.2l1 10.5h-6.2zM26.4 31.2h20.9V0H26.4v31.2zM33 6.7h7.6v17.8H33V6.7zm147.9 0h7.1v24.5h6.7V6.7h7.1V0h-20.9v6.7z"/></svg>