<svg viewBox="0 0 100 21" xmlns="http://www.w3.org/2000/svg"><path d="M59.167 12.667h2.278V3.635h-6.749v1.1c0 3.937-.506 5.403-2.078 5.962v1.964c.592-.06 4.167-.666 4.193-6.49v-.6h2.356v7.096zm-6.4-9.032h-6.445v9.032h2.294V5.625h4.151zM66.154 9.23l1.123-2.83 1.11 2.83h-2.233zm2.272-5.672h-2.26l-3.76 9.109h2.408l.683-1.687h3.535l.686 1.687h2.458l-3.75-9.109zm21.869 9.113v-9.02h-2.171l-4 5.365V3.652h-2.27v9.02h2.172l4-5.265v5.264zm4.349-1.927V9.066h4.7V7.29h-4.7V5.78h5.144V3.653h-7.414v9.02h7.478v-1.928zm-53.565-.249c-.23.071-.468.12-.721.12a2.442 2.442 0 0 1-2.25-3.39 2.442 2.442 0 0 1 2.25-1.491c.253 0 .492.05.72.12a2.433 2.433 0 0 1 1.72 2.32 2.433 2.433 0 0 1-1.72 2.321m-.72-7.023a4.79 4.79 0 0 0-3.884 1.996c-1.02 1.38-2.347 5.113-5.066 5.113-1.7 0-2.63-1.268-2.531-2.612a2.441 2.441 0 0 1 2.612-2.257 2.42 2.42 0 0 1 1.787 1.005l1.347-1.883a4.64 4.64 0 0 0-2.97-1.378 4.703 4.703 0 1 0-.168 9.389h.02c1.098 0 2.337-.471 3.146-1.076a7.113 7.113 0 0 0 1.466-1.47 4.79 4.79 0 0 0 4.24 2.578 4.702 4.702 0 0 0 0-9.405M78.891 9.88l-.189.177-.012-.005a2.525 2.525 0 0 1-1.664.633 2.54 2.54 0 0 1-2.538-2.538 2.54 2.54 0 0 1 2.538-2.538c.717 0 1.399.31 1.884.854l.09-.084 1.123-1.574a4.587 4.587 0 0 0-3.2-1.306 4.653 4.653 0 0 0-4.648 4.648 4.653 4.653 0 0 0 4.648 4.648c1.3 0 2.547-.563 3.435-1.547L78.891 9.88zm-18.197 9.353c-.687 0-1.209-.566-1.209-1.279 0-.72.509-1.286 1.177-1.286.445 0 .751.21 1.012.484l.312-.33c-.306-.325-.694-.586-1.317-.586-.961 0-1.687.789-1.687 1.718 0 .935.726 1.718 1.687 1.718.617 0 1.011-.267 1.342-.636l-.324-.3c-.261.28-.573.497-.993.497m1.743-2.495h1.177v2.858h.497v-2.858h1.177v-.432h-2.85zm5.224 2.489c-.61 0-1.19-.51-1.19-1.273 0-.764.58-1.28 1.19-1.28.624 0 1.159.497 1.159 1.273 0 .809-.522 1.28-1.159 1.28m.09-2.991c-.605 0-.993.337-1.26.731v-.661H66v4.308h.49v-1.648c.254.368.649.7 1.26.7.795 0 1.572-.637 1.572-1.712 0-1.094-.783-1.718-1.573-1.718m4.748 2.151c0 .522-.49.884-1.094.884-.446 0-.827-.242-.827-.655 0-.407.35-.675.96-.675.402 0 .72.07.961.14v.306zm-.929-2.132c-.483 0-.833.114-1.196.28l.146.4c.306-.14.611-.235 1-.235.617 0 .973.306.973.891v.102a3.453 3.453 0 0 0-1.006-.14c-.833 0-1.406.37-1.406 1.075 0 .688.611 1.038 1.228 1.038.58 0 .955-.268 1.184-.56v.49h.484v-2.011c0-.42-.115-.738-.344-.968-.236-.235-.598-.362-1.063-.362zm5.269.051h-.547l-.974 1.273-.974-1.273h-.56l1.241 1.616-1.291 1.673h.547l1.025-1.342 1.017 1.342h.567L75.59 17.91zm2.113 2.927c-.694 0-1.216-.573-1.216-1.279 0-.707.49-1.286 1.202-1.286.694 0 1.222.58 1.222 1.286 0 .706-.496 1.279-1.209 1.279m0-2.997c-.992 0-1.718.789-1.718 1.718 0 .942.72 1.718 1.705 1.718.994 0 1.725-.789 1.725-1.718 0-.942-.725-1.718-1.712-1.718m4.181 2.94h-1.095v-1.063h1.031c.535 0 .82.19.82.509 0 .343-.285.554-.756.554zm-1.095-2.45h1.024c.427 0 .656.19.656.464 0 .344-.273.528-.668.528h-1.012v-.992zm1.63 1.158c.273-.115.546-.324.546-.757 0-.497-.42-.821-1.075-.821h-1.59v3.29h1.648c.725 0 1.195-.344 1.195-.898 0-.464-.33-.706-.725-.814zm3.779.503c0 .522-.49.884-1.094.884-.446 0-.828-.242-.828-.655 0-.407.35-.675.96-.675.402 0 .72.07.962.14v.306zm-.93-2.132c-.483 0-.832.114-1.196.28l.147.4c.305-.14.61-.235.999-.235.617 0 .973.306.973.891v.102a3.45 3.45 0 0 0-1.005-.14c-.833 0-1.407.37-1.407 1.075 0 .688.611 1.038 1.229 1.038.58 0 .955-.268 1.183-.56v.49h.484v-2.011c0-.42-.114-.738-.343-.968-.236-.235-.598-.362-1.063-.362zm4.83 1.47h-1.896v-1.42h-.49v3.29h.49v-1.438h1.896v1.439h.49v-3.29h-.49zm2.075 1.183v-2.602h-.491v3.29h.471l1.96-2.603v2.603h.49v-3.29h-.477zm3.817-1.151c.07-.637.503-1.108 1.07-1.108.648 0 .992.51 1.05 1.108h-2.12zm1.082-1.521c-.91 0-1.578.763-1.578 1.718 0 1.024.738 1.718 1.642 1.718.623 0 1.024-.248 1.355-.617l-.305-.274c-.268.28-.586.465-1.038.465-.579 0-1.088-.401-1.158-1.095h2.61c.006-.076.006-.127.006-.172 0-.967-.56-1.743-1.534-1.743zm-79.47-8.109v-.002a3.463 3.463 0 0 0-3.287-4.535 3.48 3.48 0 0 0-2.98 1.703v-.01l-.05.1c-.031.054-.06.11-.087.167l-2.18 4.223a1.3 1.3 0 0 1-2.44-.625v-.067c.008-.554.294-1.718 2.034-3.496 2.215-2.262 4.24-2.925 4.266-2.933a5.87 5.87 0 0 1 2.278-.456 5.915 5.915 0 0 1 5.907 5.91 5.915 5.915 0 0 1-7.723 5.624c2.236-1.75 3.67-3.634 4.262-5.603m-13.017-.04l-.005.015a3.463 3.463 0 0 0 3.297 4.506 3.474 3.474 0 0 0 2.991-1.723v.004l.022-.042a3.24 3.24 0 0 0 .117-.225l2.11-4.08.03-.064.006-.011a1.302 1.302 0 0 1 2.463.583l-.001.052v.028c-.007.548-.285 1.707-2.005 3.463-2.215 2.263-4.266 2.97-4.287 2.977l-.004.002A5.915 5.915 0 0 1 2.41 8.106a5.915 5.915 0 0 1 7.708-5.629c-2.254 1.764-3.696 3.65-4.287 5.61M16.343.048a8.05 8.05 0 0 0-4 1.064A8.055 8.055 0 0 0 8.316.037C3.869.037.25 3.657.25 8.106c0 4.45 3.619 8.07 8.067 8.07a8.06 8.06 0 0 0 4.025-1.077 8.051 8.051 0 0 0 4.001 1.063c4.441 0 8.054-3.614 8.054-8.056 0-4.442-3.613-8.057-8.054-8.057" fill="#EA5F0A" fill-rule="evenodd"/></svg>