<svg viewBox="0 0 90 28" xmlns="http://www.w3.org/2000/svg"><g fill="#1C4680" fill-rule="evenodd"><path d="M79.573 23.431h-2.954v-6.415l-3.463 6.415h-3.548v-9.11h2.973v6.268l3.38-6.268h3.612zm-10.556 0H64.95c-2.231 0-3.972-1.827-3.972-4.43 0-2.917 1.74-4.68 4.002-4.68h4.037v2.27h-2.622c-1.592 0-2.453.482-2.453 2.365 0 1.864.871 2.215 2.453 2.215h2.622v2.26zm-40.829 0h-3.214l1.465-2.573-3.659-6.537h3.296l1.908 3.885 1.908-3.885h3.213zm57.478-2.122c.657 0 .657-.516.657-.73 0-.211 0-.672-.667-.672h-2.527v1.402h2.537zm.49-3.527c3.121 0 3.121 1.773 3.13 2.761 0 1.043-.009 2.888-3.102 2.888h-6.01v-9.11h8.66v2.27H83.13v1.19h3.028zm-39.577-.877l-.01-.027-.926 2.593h1.881l-.945-2.566zm-5.482 6.526l3.833-9.11h3.316l3.167 7.59 3.204-7.59h3.25l3.88 9.11h-3.14l-2.353-6.563-2.35 6.563h-4.972l-.704-1.873H44.93l-.722 1.873h-3.111zm-4.816-6.848v1.957h2.121c.361 0 1.205 0 1.205-1.015 0-.942-.844-.942-1.178-.942h-2.148zm.01 6.848h-2.954v-9.1l6.113-.01c3.119 0 3.119 2.557 3.119 3.129 0 .61 0 3.352-3.12 3.352h-3.158v2.63zM9.112 12.57c-4.523 0-8.35 3.113-8.35 7.128 0 1.263.402 2.564 1.207 3.755 2.145-2.006 4.023-5.68 4.747-10.032a6.822 6.822 0 0 1 1.228-.21c0 .629-.534 9.97-3.843 13.277A9.114 9.114 0 0 1 7.12 9.984c.217-2.92.217-4.114.227-5.576h.723c0 .019-.024 4.088-.043 5.42.249-.028.504-.047.76-.058 0-2.337.01-6.63.019-9.117h.612c.007 2.487.017 6.78.017 9.117.255.01.51.03.76.058a1357.54 1357.54 0 0 1-.044-5.42h.723c.01 1.462.01 2.657.229 5.576a9.112 9.112 0 0 1 7.12 8.893c0 3.18-1.63 5.98-4.1 7.61-3.31-3.307-3.844-12.647-3.844-13.277.505.034 1.14.177 1.228.211.724 4.352 2.602 8.026 4.746 10.032.805-1.191 1.21-2.492 1.21-3.755 0-4.015-3.828-7.129-8.352-7.129"/><path d="M6.28 27.54c1.329-2.3 2.069-6.699 2.351-14.403h.961c.285 7.704 1.022 12.103 2.351 14.403a9.115 9.115 0 0 1-2.83.448c-.99 0-1.942-.157-2.832-.448"/></g></svg>