<svg id="Layer_1" data-name="Layer 1" xmlns="http://www.w3.org/2000/svg" viewBox="0 0 710.64 169.55"><defs><style>.cls-1{fill:#004b8d}</style></defs><title>vtb</title><path id="path2187" class="cls-1" d="M370.13 316.38v-45.71h-32v-21.49h92.17l-3.6 10.65-3.6 10.64-14 .1-14 .1v91.41h-25v-45.7zm-113.3-11v-56.24l24.71.16c26.63.17 26.37.15 32.44 2.35a26.12 26.12 0 0 1 10.5 7 21.28 21.28 0 0 1 5.17 7 26.47 26.47 0 0 1 2.86 14.19c-.52 9.1-4.91 16.7-12 20.8l-2.06 1.19 3.2 1.68a32.74 32.74 0 0 1 10.89 9.87c4.2 6.65 5.42 16.28 3.19 25.16a40.77 40.77 0 0 1-2.56 6.7 20.75 20.75 0 0 1-5 6.83 27.15 27.15 0 0 1-11.1 7.12c-6.43 2.4-8 2.51-35.49 2.51h-24.74v-56.28zm45 33.88A10.26 10.26 0 0 0 307 334c3.39-6.71 1.39-15.61-4.13-18.44-2.16-1.1-6.9-1.57-14.39-1.45l-6.45.11-.11 12.7c0 7 0 12.94.11 13.23.18.45 1.78.51 8.91.39 8.58-.15 8.75-.17 10.92-1.24zm-1.95-47.17c6.06-2 8.54-11.49 4.44-16.87-2.61-3.41-5.57-4.2-15.81-4.2h-6.71v22l8.3-.21c5.22-.1 8.9-.37 9.82-.68zm136.63 13.11v-56.41h37.7c20.74 0 37.7.13 37.7.29s-1.61 5-3.59 10.74l-3.58 10.45h-42.79v21l11.23.21a122.72 122.72 0 0 1 14.77.83c12.47 2.14 20.68 7.71 25.4 17.23 2.87 5.79 3.44 8.56 3.44 16.8 0 6.33-.1 7.4-1 10.77-3.79 13.89-14.21 22.2-30.4 24.18-1.94.24-12.71.41-26.08.41h-22.76v-56.46zm41.3 34.58c6-.79 9.42-3.93 10.66-10 1.34-6.44-1.11-12.84-5.81-15.2-2.87-1.45-5.44-1.8-13.35-1.8h-7.4v27.35h6.54c3.64.06 7.85-.13 9.4-.31zm-364-35c-5-3.42-15-12.92-19.81-18.91a105 105 0 0 1-17.29-31.55c-1.91-5.61-1.92-5.4.64-12.57a110.43 110.43 0 0 1 16.32-29.3 148.14 148.14 0 0 1 17.35-17.13l3.65-2.8h99.13l-1 3.22c-.54 1.77-1.51 4.59-2.14 6.25l-1.16 3h-91.31l-2.26 2.01c-1.24 1-2.88 2.45-3.64 3.11l-1.36 1.19h47.76c26.27 0 47.76.09 47.76.19a98.31 98.31 0 0 1-5.18 8.71l-2.32 3.62-49.45.1-49.5.08-1.87 2.73a16.46 16.46 0 0 0-1.88 3.23c0 .38 9.94.49 48.51.49h48.54l-3.12 3.16c-1.72 1.73-4.72 4.46-6.67 6.05l-3.55 2.9H89.7l-1.16 3.22-1.16 3.22 1.16 3.31a93 93 0 0 0 25.41 38l3 2.67h40.24c22.13 0 40.24-.06 40.24-.13a79.71 79.71 0 0 0-3.59-8.22 75.85 75.85 0 0 0-14.26-19.67l-3.58-3.67-38.4-.1-38.4-.1-1.76-3.54c-1-1.94-2.15-4.62-2.62-6l-.82-2.37h86.27l5.73 5.55c11 10.68 18.61 21.78 23.42 34.23a84.89 84.89 0 0 1 3.9 14.42l.27 2.05h-49.41c-45.61.01-49.44-.04-50.34-.65z" transform="translate(-75.38 -192.54)"/><path class="cls-1" d="M550.47 275.57a11.89 11.89 0 0 1-7.89 2.67c-4.57 0-7.36-1.73-9.29-3.95-2.47-2.79-3.46-6.16-3.46-10.19a19.19 19.19 0 0 1 1.93-8.84 12.36 12.36 0 0 1 10.91-6.58 11.54 11.54 0 0 1 7.18 2.26l-2.59 3.87a7.18 7.18 0 0 0-4.44-1.6 6.06 6.06 0 0 0-4.93 2.46c-1.44 2.1-1.61 5.67-1.61 7.86 0 3.86.41 5.67 1.2 7.11a6 6 0 0 0 5.51 3.16 7.57 7.57 0 0 0 4.85-1.81l2.63 3.57z" transform="translate(-75.38 -192.54)"/><path class="cls-1" d="M495.61 61.37h-6.83v23.85h-5.84V61.37h-6.99v-4.73h20.61l-.95 4.73z"/><path class="cls-1" d="M583 249.18a12.9 12.9 0 0 1 6.58 1.4 8 8 0 0 1 4.11 7.4 8.91 8.91 0 0 1-4.93 8.31c-1.56.74-2.88.94-5.71.94h-3.16v10.52H574v-28.57h9zm-.12 13.37c2.63 0 3.25-.49 3.82-1.48a5.18 5.18 0 0 0 .71-2.92 4.83 4.83 0 0 0-.91-3.09 3.69 3.69 0 0 0-3-1.23h-3.65v8.72h3zm27.24 15.2l-2-6.78h-8.4l-2 6.78h-6l9.37-28.66h6.22l9 28.66h-6.18zm-3.42-11.51c-.9-2.92-1.23-4.36-1.55-5.8s-.62-2.3-1.15-5c-.41 1.72-1 4.19-1.35 5.47-.74 2.75-1 3.74-1.52 5.35h5.57z" transform="translate(-75.38 -192.54)"/><path class="cls-1" d="M557.36 85.22l-5.14-10.07-5.1 10.07h-7.15l8.97-15.3-7.73-13.28h7.03l3.86 7.69 3.91-7.69h6.87l-7.45 12.91 8.87 15.67h-6.94z"/><path class="cls-1" d="M661.65 252.47c2.26 2.55 3.49 6.46 3.49 11s-1.23 8.39-3.49 11a12.33 12.33 0 0 1-17.77 0c-2.25-2.59-3.48-6.45-3.48-11s1.23-8.47 3.48-11a12.32 12.32 0 0 1 17.77 0zm-13.57 3.66c-.53 1.07-1.19 2.8-1.19 7.36s.66 6.25 1.19 7.32a5.13 5.13 0 0 0 9.38 0c.54-1.07 1.19-2.8 1.19-7.32s-.64-6.29-1.19-7.36a5.13 5.13 0 0 0-9.38 0zm31.25-6.95c2.84 0 5.1.29 7.07 2.06a6.64 6.64 0 0 1 2.3 5.1 6.36 6.36 0 0 1-1.92 4.77 7 7 0 0 1-2.64 1.48 7.46 7.46 0 0 1 3.18 1.6 6.69 6.69 0 0 1 2.51 5.6c0 4.44-2.88 8-8.67 8h-11.49v-28.61h9.66zm-4 11.43h3.87a3.25 3.25 0 0 0 2.67-.94 3.58 3.58 0 0 0 .82-2.35 3 3 0 0 0-1.64-2.88 6.12 6.12 0 0 0-2.38-.37h-3.34v6.54zm4.15 12.47a3.31 3.31 0 0 0 3-1.4 4.61 4.61 0 0 0 .78-2.59 4.06 4.06 0 0 0-1.07-2.89 3.81 3.81 0 0 0-2.75-.86h-4.06v7.73h4.06zm29.25 4.67l-2-6.78h-8.37l-2 6.78h-6l9.39-28.66h6.2l9 28.66h-6.17zm-3.42-11.51c-.91-2.92-1.24-4.36-1.57-5.8s-.61-2.3-1.15-5c-.41 1.72-1 4.19-1.35 5.47-.74 2.75-1 3.74-1.52 5.35h5.58z" transform="translate(-75.38 -192.54)"/><path class="cls-1" d="M656.09 85.22V72.47h-8.19v12.75h-5.84V56.64h5.84v11.1h8.19v-11.1h5.83v28.58h-5.83z"/><path class="cls-1" d="M757.77 277.75v-14.14c0-1.44.13-4.23.25-6a34.64 34.64 0 0 1-2 5l-7 15.21h-6v-28.64h5.83v14.15c0 1.43-.12 4.23-.24 6a36.06 36.06 0 0 1 2-5l6.95-15.21h6v28.57h-5.84z" transform="translate(-75.38 -192.54)"/><path class="cls-1" d="M693.99 85.22V56.64h16.29l-.73 4.73h-9.8v6.58h8.19v4.73h-8.1v7.6h10.8v4.94h-16.65z"/></svg>