<svg id="Layer_1" data-name="Layer 1" xmlns="http://www.w3.org/2000/svg" viewBox="0 0 178.9 62.32"><defs><style>.cls-1{fill:#03296a}.cls-2{fill:#00a9b7}</style></defs><title>zetta</title><path class="cls-1" d="M96.73 53.7a1 1 0 0 1-1-.69 1.49 1.49 0 0 1 .27-1.22c.87-1.58 1.85-3.19 2.89-4.78S101 43.85 102 42.3s2.09-3.05 3.09-4.54 1.89-2.89 2.72-4.27h-.05a6.83 6.83 0 0 0-1.24-.15h-2.26a16.94 16.94 0 0 0-2.81.19 3.63 3.63 0 0 0-1.56.61 3.17 3.17 0 0 0-.89 1.09 14.09 14.09 0 0 0-.77 2 1 1 0 0 1-.69.66 1.76 1.76 0 0 1-.53.08h-.21a1.89 1.89 0 0 1-.65-.17.76.76 0 0 1-.42-.89c.12-.82.22-1.74.3-2.67s.12-1.81.12-2.56a.94.94 0 0 1 .19-.54 1.07 1.07 0 0 1 .92-.38h16.19a1 1 0 0 1 1.2.79 1.55 1.55 0 0 1-.21 1c-1.84 3.13-3.83 6.24-5.9 9.23s-3.92 5.92-5.56 8.81a2.93 2.93 0 0 0-.19.35 4.36 4.36 0 0 0 1 .16c.59 0 1.44.07 2.51.07a22.51 22.51 0 0 0 2.84-.14 3.82 3.82 0 0 0 1.65-.55 3.05 3.05 0 0 0 1-1.21 13.85 13.85 0 0 0 .87-2.39 1 1 0 0 1 .64-.64 1.91 1.91 0 0 1 .63-.11h.16a1.64 1.64 0 0 1 .76.25.87.87 0 0 1 .39.93c-.12.75-.24 1.59-.34 2.49a27.41 27.41 0 0 0-.14 2.86.93.93 0 0 1-.91 1.06H96.73zm30.76.49a13.79 13.79 0 0 1-5.24-.91 9.93 9.93 0 0 1-3.71-2.59 10.6 10.6 0 0 1-2.16-3.89 16 16 0 0 1-.68-4.75 13.31 13.31 0 0 1 .84-4.71 11.35 11.35 0 0 1 6-6.47 11 11 0 0 1 4.66-1 10.15 10.15 0 0 1 3.93.75 8.81 8.81 0 0 1 3 2.07 9.38 9.38 0 0 1 1.93 3.14 10.91 10.91 0 0 1 .69 3.91 1.28 1.28 0 0 1-1.25 1.54h-13.63v.06a13.58 13.58 0 0 0 .54 4.12 7.06 7.06 0 0 0 1.45 2.65 5.23 5.23 0 0 0 2.14 1.46 8.48 8.48 0 0 0 2.82.46 18.34 18.34 0 0 0 3.13-.26 5.11 5.11 0 0 0 2.44-1.08 1.17 1.17 0 0 1 .74-.27h.2a1.27 1.27 0 0 1 .74.42 1.41 1.41 0 0 1 .34.68 1 1 0 0 1-.19.85 8.92 8.92 0 0 1-3.73 3 13.66 13.66 0 0 1-5 .82m3.07-15.63a.48.48 0 0 0 .26 0 5.61 5.61 0 0 0 .09-1.09 5.67 5.67 0 0 0-.29-1.8 4.92 4.92 0 0 0-.81-1.52 4 4 0 0 0-1.25-1 3.55 3.55 0 0 0-1.65-.38 4.68 4.68 0 0 0-2 .41 4.56 4.56 0 0 0-1.44 1.09 4.68 4.68 0 0 0-.9 1.59 11 11 0 0 0-.46 2 5 5 0 0 0-.08.72h8.58zm37.13-7.05a1 1 0 0 0-.95-.78h-7.07V26a.86.86 0 0 0-.66-.81 2.55 2.55 0 0 0-.89-.16 2.32 2.32 0 0 0-.93.19 1.1 1.1 0 0 0-.7.84 13.22 13.22 0 0 1-.59 2.5A3 3 0 0 1 155 30c-.91.7-2.56.67-3.29.73h-6.22V26a.86.86 0 0 0-.66-.81 2.54 2.54 0 0 0-.89-.16 2.33 2.33 0 0 0-.93.19 1.12 1.12 0 0 0-.71.84 13.3 13.3 0 0 1-.58 2.5 3.59 3.59 0 0 1-.84 1.38 3.16 3.16 0 0 1-1.28.73 9.79 9.79 0 0 1-1.94.34.82.82 0 0 0-.79.65 2.17 2.17 0 0 0-.1.83 3 3 0 0 0 .15.76.78.78 0 0 0 .74.65h1.56a1.24 1.24 0 0 1 .56.1.17.17 0 0 1 0 .11 6.35 6.35 0 0 1 0 .85v12.5a7.22 7.22 0 0 0 1.5 5c1 1.1 2.71 1.65 5.07 1.65a9.48 9.48 0 0 0 3.69-.67 5.7 5.7 0 0 0 2.64-2.33.86.86 0 0 0 .08-.81 1.75 1.75 0 0 0-.31-.53 1.34 1.34 0 0 0-.56-.39.87.87 0 0 0-.34-.07.84.84 0 0 0-.49.16 5.56 5.56 0 0 1-1.4.66 6.06 6.06 0 0 1-2 .31 1.71 1.71 0 0 1-1.74-1 9.67 9.67 0 0 1-.56-3.82V33.96h7.85a1.24 1.24 0 0 1 .56.1.17.17 0 0 1 0 .11 6.68 6.68 0 0 1 0 .85v12.5a7.21 7.21 0 0 0 1.5 5c1 1.1 2.71 1.65 5.07 1.65a9.48 9.48 0 0 0 3.69-.67 5.71 5.71 0 0 0 2.64-2.33.87.87 0 0 0 .08-.81 1.84 1.84 0 0 0-.31-.53 1.36 1.36 0 0 0-.56-.39.87.87 0 0 0-.34-.07.85.85 0 0 0-.49.16 5.53 5.53 0 0 1-1.4.66 6.06 6.06 0 0 1-2 .31 1.71 1.71 0 0 1-1.74-1 9.64 9.64 0 0 1-.56-3.82V33.96h7a1 1 0 0 0 1-.79 3.12 3.12 0 0 0 .14-.86 3.31 3.31 0 0 0 .2-.8zm17.69 22.68a4.41 4.41 0 0 1-2.73-.86 5.49 5.49 0 0 1-1.44-1.58 11.78 11.78 0 0 1-2.77 1.67 11.19 11.19 0 0 1-4.42.77 6.37 6.37 0 0 1-4.66-1.63A6.13 6.13 0 0 1 167.7 48a6.4 6.4 0 0 1 3.53-5.83c2.18-1.25 5.35-1.91 9.42-1.94v-2.17a12.71 12.71 0 0 0-.19-2.2 5.26 5.26 0 0 0-.6-1.7 2.79 2.79 0 0 0-1.09-1.07 3.68 3.68 0 0 0-1.79-.39 4.93 4.93 0 0 0-2.64.62 1.57 1.57 0 0 0-.88 1.38 1.35 1.35 0 0 0 .25.76 2.36 2.36 0 0 1 .43 1.34 2.31 2.31 0 0 1-.85 1.69 2.85 2.85 0 0 1-2 .77 2.75 2.75 0 0 1-2.29-.91 3.19 3.19 0 0 1-.67-2 4.81 4.81 0 0 1 .76-2.59 6.65 6.65 0 0 1 2-2 10.61 10.61 0 0 1 2.91-1.38 12 12 0 0 1 3.42-.49 10.11 10.11 0 0 1 6.47 1.92c1.62 1.3 2.44 3.45 2.44 6.39v9.73a5.6 5.6 0 0 0 .27 2.16.71.71 0 0 0 .77.38 2.17 2.17 0 0 0 .7-.09 5.46 5.46 0 0 0 .88-.46.76.76 0 0 1 .42-.13.82.82 0 0 1 .43.12 1.52 1.52 0 0 1 .46.41 1.65 1.65 0 0 1 .26.58.89.89 0 0 1-.24.85 6.16 6.16 0 0 1-4.86 2.44m-4.72-11.31a11.59 11.59 0 0 0-5.39 1.56 3.65 3.65 0 0 0-1.07 5.15 2.31 2.31 0 0 0 2 .78 6.57 6.57 0 0 0 2.19-.41 6.42 6.42 0 0 0 2.06-1.17.65.65 0 0 0 .21-.38v-5.53m8.08-19.61a2.33 2.33 0 1 0 2.34 2.33 2.34 2.34 0 0 0-2.34-2.33m0 4.19a1.85 1.85 0 1 1 1.87-1.85 1.86 1.86 0 0 1-1.87 1.85" transform="translate(-12.22 -11.37)"/><path class="cls-1" d="M188.85 27a1.27 1.27 0 0 1-1.34-1.37 1.35 1.35 0 0 1 1.41-1.42 1.47 1.47 0 0 1 .64.12h.08l-.14.48-.12-.06a1 1 0 0 0-.45-.1.81.81 0 0 0-.86.91.8.8 0 0 0 .85.89 1.17 1.17 0 0 0 .47-.09l.12-.06.12.48h-.08a1.77 1.77 0 0 1-.71.13M54.55 12a17.41 17.41 0 0 1 1.59 1.4l16.52 16.48a17.53 17.53 0 0 1 1.41 1.59h.63V13.76a2.39 2.39 0 0 0-2.39-2.39H54.55V12zM12.86 31.47a17.71 17.71 0 0 1 1.41-1.59L30.78 13.4a18.88 18.88 0 0 1 1.6-1.4v-.63H14.61a2.4 2.4 0 0 0-2.39 2.39v17.71h.64zm61.2 22.12a18.33 18.33 0 0 1-1.4 1.59L56.14 71.65a17.85 17.85 0 0 1-1.59 1.41v.63H72.3a2.39 2.39 0 0 0 2.39-2.39V53.59h-.63zM32.38 73.05a17.6 17.6 0 0 1-1.59-1.4L14.27 55.18a18 18 0 0 1-1.41-1.59h-.64V71.3a2.39 2.39 0 0 0 2.39 2.39h17.77v-.64z" transform="translate(-12.22 -11.37)"/><path class="cls-2" d="M69.08 33.45L52.57 17a12.89 12.89 0 0 0-18.21 0L17.85 33.45a12.82 12.82 0 0 0 0 18.16l16.51 16.47a12.89 12.89 0 0 0 18.2 0l16.52-16.47a12.82 12.82 0 0 0 0-18.16zM55.41 57H31.7a.72.72 0 0 1-.7-.68V54a2.45 2.45 0 0 1 .44-1.28L45.49 34.4c.24-.31.12-.57-.28-.57H34.94a1.07 1.07 0 0 1-.94-.67l-1.52-4.46A.48.48 0 0 1 33 28h22.08a.72.72 0 0 1 .72.71v2.63a2.46 2.46 0 0 1-.43 1.28l-13.76 18c-.24.31-.11.57.28.57h11.53a1.07 1.07 0 0 1 .95.68l1.52 4.46a.48.48 0 0 1-.48.67z" transform="translate(-12.22 -11.37)"/></svg>